<svg xmlns="http://www.w3.org/2000/svg" viewBox="0 0 497.33 59.46"><defs><style>.cls-1{fill:#e8e8e8;}.cls-2{fill:#659933;}.cls-3{fill:#f8ac47;}.cls-4{fill:#34669a;}.cls-5{fill:#1db9dc;}</style></defs><g id="Layer_2" data-name="Layer 2"><g id="Capa_1" data-name="Capa 1"><path class="cls-1" d="M20.08,31.51A10,10,0,0,1,16.59,38,10,10,0,0,1,10,40.13a10,10,0,0,1-7.36-3A8.75,8.75,0,0,1,.31,32.43,39.93,39.93,0,0,1,0,26.26a39.84,39.84,0,0,1,.31-6.17,8.75,8.75,0,0,1,2.37-4.72,10,10,0,0,1,7.36-3,10.14,10.14,0,0,1,6.65,2.23A10,10,0,0,1,20.08,21h-5.4q-1-3.87-4.6-3.87a4.32,4.32,0,0,0-3.72,1.8q-1,1.45-1,7.32c0,2.12,0,3.45.07,4A6.73,6.73,0,0,0,6.67,34a4.32,4.32,0,0,0,3.41,1.42q3.64,0,4.6-3.87Z"/><path class="cls-1" d="M40.7,31.47H28.21a4.47,4.47,0,0,0,1.17,3.22,4.18,4.18,0,0,0,3.2,1.22A6.16,6.16,0,0,0,37.1,34l3,3a11,11,0,0,1-3.22,2.34,10.83,10.83,0,0,1-4.37.8q-9.24,0-9.24-10.23a11.06,11.06,0,0,1,2.42-7.55A8,8,0,0,1,32,19.7a8.13,8.13,0,0,1,6.44,2.72,10.05,10.05,0,0,1,2.26,6.83Zm-4.91-3.41a5.31,5.31,0,0,0-.46-2.15A3.33,3.33,0,0,0,32,23.84a3.33,3.33,0,0,0-3.33,2.07,5.31,5.31,0,0,0-.46,2.15Z"/><path class="cls-1" d="M61.89,39.9h-5V27.83A3.63,3.63,0,0,0,55.81,25a3.51,3.51,0,0,0-4.46,0,3.64,3.64,0,0,0-1.07,2.84V39.9h-5v-20h4.87v1.84a6.54,6.54,0,0,1,5-2.07,6.33,6.33,0,0,1,4.71,1.77,7.63,7.63,0,0,1,2,5.67Z"/><path class="cls-1" d="M76.26,39.9H73.54a5.51,5.51,0,0,1-4.4-1.8,5.71,5.71,0,0,1-1.38-3.91V24.3H65.65V20.51h2.11v-5.9h5v5.9h3.48V24.3H72.78v9.58c0,1.21.57,1.81,1.7,1.81h1.78Z"/><path class="cls-1" d="M95.35,21.58l-3.76,3.8A3.62,3.62,0,0,0,89,24.19a3,3,0,0,0-2.18.88,3.78,3.78,0,0,0-1,2.8v12h-5v-20h4.87v1.92a6.19,6.19,0,0,1,5-2.15A6.39,6.39,0,0,1,95.35,21.58Z"/><path class="cls-1" d="M145.36,39.9H140.5V38a6.3,6.3,0,0,1-4.95,2.11,6.62,6.62,0,0,1-4.9-1.8,6.89,6.89,0,0,1-1.77-3.83,30.34,30.34,0,0,1-.26-4.6,29.92,29.92,0,0,1,.26-4.56,7,7,0,0,1,1.76-3.84,6.54,6.54,0,0,1,4.85-1.8,6.19,6.19,0,0,1,4.85,2V12.61h5Zm-5-10a10.62,10.62,0,0,0-.56-4.06A2.81,2.81,0,0,0,137,24.19a2.88,2.88,0,0,0-2.92,1.91,12.62,12.62,0,0,0-.41,3.8,12.49,12.49,0,0,0,.41,3.79,2.87,2.87,0,0,0,2.92,2A2.81,2.81,0,0,0,139.78,34,11,11,0,0,0,140.34,29.9Z"/><path class="cls-1" d="M167.32,31.47H154.83A4.47,4.47,0,0,0,156,34.69a4.19,4.19,0,0,0,3.2,1.22A6.16,6.16,0,0,0,163.72,34l3,3a9.49,9.49,0,0,1-7.59,3.14q-9.24,0-9.24-10.23a11.06,11.06,0,0,1,2.42-7.55,8,8,0,0,1,6.28-2.65,8.12,8.12,0,0,1,6.44,2.72,10.05,10.05,0,0,1,2.26,6.83Zm-4.9-3.41a5.67,5.67,0,0,0-.46-2.15,3.72,3.72,0,0,0-6.67,0,5.49,5.49,0,0,0-.46,2.15Z"/><path class="cls-1" d="M202.27,39.9h-5.55l-1.61-4.83h-9.7l-1.65,4.83h-5.55l9.92-27.29h4.18Zm-8.58-9.31-3.33-9.93-3.45,9.93Z"/><path class="cls-1" d="M219.79,37.41a8.76,8.76,0,0,1-6.59,2.72,8.53,8.53,0,0,1-5.94-2.07c-2-1.79-3-4.51-3-8.16s1-6.36,3-8.13a8.53,8.53,0,0,1,5.94-2.07,8.72,8.72,0,0,1,6.59,2.69l-3.36,3.37a4.31,4.31,0,0,0-3.21-1.57,3.48,3.48,0,0,0-2.84,1.34,6.92,6.92,0,0,0-1.09,4.37,7,7,0,0,0,1.09,4.41,3.48,3.48,0,0,0,2.84,1.34,4.34,4.34,0,0,0,3.21-1.57Z"/><path class="cls-1" d="M238.18,37.41a8.73,8.73,0,0,1-6.59,2.72,8.53,8.53,0,0,1-5.94-2.07q-3-2.69-3-8.16c0-3.66,1-6.36,3-8.13a8.53,8.53,0,0,1,5.94-2.07,8.7,8.7,0,0,1,6.59,2.69l-3.36,3.37a4.27,4.27,0,0,0-3.2-1.57,3.5,3.5,0,0,0-2.85,1.34,7,7,0,0,0-1.09,4.37,7.1,7.1,0,0,0,1.09,4.41,3.5,3.5,0,0,0,2.85,1.34,4.31,4.31,0,0,0,3.2-1.57Z"/><path class="cls-1" d="M247,16.56h-5V12.5h5Zm0,23.34h-5v-20h5Z"/><path class="cls-1" d="M268.65,29.9a17.86,17.86,0,0,1-.46,4.56,7.18,7.18,0,0,1-1.8,3.22,9,9,0,0,1-12.38,0,7.18,7.18,0,0,1-1.8-3.22,17.86,17.86,0,0,1-.46-4.56q0-5.37,2.3-7.78a9,9,0,0,1,12.3,0C267.89,23.73,268.65,26.32,268.65,29.9Zm-5,0q0-3.67-1.14-4.83a3.09,3.09,0,0,0-2.31-.88,3,3,0,0,0-2.27.88q-1.14,1.16-1.14,4.83t1.14,4.87a3.08,3.08,0,0,0,2.27.88,3.13,3.13,0,0,0,2.31-.88Q263.63,33.61,263.63,29.9Z"/><path class="cls-1" d="M290,39.9h-5V27.83A3.64,3.64,0,0,0,283.91,25a3.16,3.16,0,0,0-2.21-.8,3.24,3.24,0,0,0-2.25.8,3.63,3.63,0,0,0-1.06,2.84V39.9h-5v-20h4.87v1.84a6.54,6.54,0,0,1,5-2.07A6.37,6.37,0,0,1,288,21.47a7.67,7.67,0,0,1,2,5.67Z"/><path class="cls-1" d="M323.8,31.51a10.28,10.28,0,0,1-17.4,5.63A8.77,8.77,0,0,1,304,32.43a41.7,41.7,0,0,1-.3-6.17,41.61,41.61,0,0,1,.3-6.17,8.76,8.76,0,0,1,2.38-4.72,10,10,0,0,1,7.36-3,10.14,10.14,0,0,1,6.65,2.23A10,10,0,0,1,323.8,21h-5.4c-.64-2.58-2.18-3.87-4.6-3.87a4.32,4.32,0,0,0-3.72,1.8q-1,1.45-1,7.32c0,2.12,0,3.45.07,4A6.73,6.73,0,0,0,310.39,34a4.32,4.32,0,0,0,3.41,1.42c2.42,0,4-1.29,4.6-3.87Z"/><path class="cls-1" d="M336.49,39.9h-2.84a5.59,5.59,0,0,1-4.45-1.8,5.71,5.71,0,0,1-1.38-3.91V12.61h5V33.88a1.58,1.58,0,0,0,1.75,1.81h1.9Z"/><rect class="cls-1" x="340.43" y="9.86" width="5.02" height="4.78"/><rect class="cls-1" x="340.43" y="19.93" width="5.02" height="19.97"/><path class="cls-1" d="M379.22,39.9h-5V27.83A3.67,3.67,0,0,0,373.14,25a3.15,3.15,0,0,0-2.2-.8,3.22,3.22,0,0,0-2.2.76,3.48,3.48,0,0,0-1.1,2.76V39.9h-5V27.83A3.64,3.64,0,0,0,361.55,25a3.2,3.2,0,0,0-2.22-.8,3.23,3.23,0,0,0-2.26.8A3.61,3.61,0,0,0,356,27.83V39.9h-5v-20h4.87v1.84a6.63,6.63,0,0,1,5-2.07,6.16,6.16,0,0,1,5.29,2.53,8,8,0,0,1,6-2.53,6.6,6.6,0,0,1,4.9,1.77,7.64,7.64,0,0,1,2.19,5.67Z"/><path class="cls-1" d="M399.72,39.9h-4.87V38.18a6.66,6.66,0,0,1-4.9,1.91,6.77,6.77,0,0,1-5.06-1.72,6.17,6.17,0,0,1-1.69-4.52,5.43,5.43,0,0,1,1.74-4.16A7.13,7.13,0,0,1,390,28.06h4.7v-1c0-2.09-1.24-3.14-3.7-3.14a4.76,4.76,0,0,0-3.82,1.65L384,22.46a7.84,7.84,0,0,1,3.1-2.18,12,12,0,0,1,4.1-.58q8.51,0,8.51,7.06Zm-5-7.36V31.47h-3.93c-1.85,0-2.78.75-2.78,2.26s1,2.3,2.86,2.3q2.55,0,3.39-1.26A4.1,4.1,0,0,0,394.7,32.54Zm2.68-22.3L393,16.75h-3.33l2.45-6.51Z"/><path class="cls-1" d="M414.05,39.9h-2.72a5.51,5.51,0,0,1-4.4-1.8,5.71,5.71,0,0,1-1.38-3.91V19.7h5V33.88c0,1.21.56,1.81,1.7,1.81h1.78Z"/><rect class="cls-1" x="418.5" y="9.86" width="5.02" height="4.78"/><rect class="cls-1" x="418.5" y="19.93" width="5.02" height="19.97"/><path class="cls-1" d="M443.6,37.41A8.75,8.75,0,0,1,437,40.13a8.53,8.53,0,0,1-5.94-2.07q-3-2.69-3-8.16c0-3.66,1-6.36,3-8.13A8.53,8.53,0,0,1,437,19.7a8.72,8.72,0,0,1,6.59,2.69l-3.36,3.37A4.31,4.31,0,0,0,437,24.19a3.48,3.48,0,0,0-2.84,1.34,6.92,6.92,0,0,0-1.09,4.37,7,7,0,0,0,1.09,4.41A3.48,3.48,0,0,0,437,35.65a4.34,4.34,0,0,0,3.21-1.57Z"/><path class="cls-1" d="M462.61,39.9h-4.87V38.18a6.66,6.66,0,0,1-4.9,1.91,6.77,6.77,0,0,1-5.06-1.72,6.17,6.17,0,0,1-1.69-4.52,5.43,5.43,0,0,1,1.74-4.16,7.13,7.13,0,0,1,5.06-1.63h4.7v-1q0-3.14-3.71-3.14a4.75,4.75,0,0,0-3.81,1.65l-3.17-3.11a7.84,7.84,0,0,1,3.1-2.18,12,12,0,0,1,4.1-.58q8.5,0,8.51,7.06Zm-5-7.36V31.47h-3.93c-1.85,0-2.78.75-2.78,2.26s1,2.3,2.86,2.3q2.55,0,3.39-1.26A4.1,4.1,0,0,0,457.59,32.54Z"/><rect class="cls-2" x="80.51" y="50.53" width="13.13" height="5.02" transform="translate(-12 77.12) rotate(-45.01)"/><polygon class="cls-2" points="95.3 59.43 90.28 59.43 90.28 49.84 80.69 49.84 80.69 44.82 95.3 44.82 95.3 59.43"/><polygon class="cls-2" points="131.15 3.55 127.6 0 121.53 6.07 121.53 0.04 116.52 0.04 116.52 14.64 131.12 14.64 131.12 9.62 125.08 9.62 131.15 3.55"/><circle class="cls-2" cx="106.57" cy="29.92" r="10.21"/><polygon class="cls-3" points="415.14 4.75 410.56 4.75 410.56 0.04 405.54 0.04 405.54 4.75 400.95 4.75 400.95 9.92 405.54 9.92 405.54 14.64 410.56 14.64 410.56 9.92 415.14 9.92 415.14 4.75"/><polygon class="cls-4" points="272.7 3.55 269.16 0 263.08 6.07 263.08 0.04 258.06 0.04 258.06 14.64 272.67 14.64 272.67 9.62 266.63 9.62 272.7 3.55"/><rect class="cls-5" x="482.66" y="4.72" width="14.67" height="5.23"/><path class="cls-5" d="M478,25.59V4.72h-5.23V25.59a7.29,7.29,0,1,0,5.23,0Z"/></g></g></svg>