<svg xmlns="http://www.w3.org/2000/svg" viewBox="0 0 152.76 49.84"><defs><style>.cls-1{fill:#fff;}</style></defs><g id="Layer_2" data-name="Layer 2"><g id="Layer_1-2" data-name="Layer 1"><path class="cls-1" d="M104.34,4.71a1.52,1.52,0,0,0,1.51,1.67,1.35,1.35,0,0,0,1.35-1l1.4.47a2.72,2.72,0,0,1-2.75,2,3.06,3.06,0,0,1-3.11-3.13,3,3,0,0,1,3.06-3.13,2.7,2.7,0,0,1,2.77,2l-1.43.48a1.28,1.28,0,0,0-1.31-1A1.5,1.5,0,0,0,104.34,4.71Z"/><path class="cls-1" d="M115,6a2.65,2.65,0,0,1-2.68,1.87,3,3,0,0,1-3-3.15,3,3,0,0,1,2.9-3.11,2.76,2.76,0,0,1,2.92,3.06c0,.23,0,.47,0,.49h-4.22a1.45,1.45,0,0,0,1.49,1.35,1.31,1.31,0,0,0,1.34-.9ZM113.53,4a1.19,1.19,0,0,0-1.32-1.16A1.27,1.27,0,0,0,110.89,4Z"/><path class="cls-1" d="M118,7.66h-1.59V1.76h1.55v.73a2,2,0,0,1,1.7-.88A2.07,2.07,0,0,1,121.74,4V7.66h-1.59V4.22a1,1,0,0,0-1.09-1.17A1.11,1.11,0,0,0,118,4.27Z"/><path class="cls-1" d="M125.33,1.76h1.19V3.18h-1.19V5.65c0,.51.24.68.7.68a1.93,1.93,0,0,0,.49,0V7.6a2.31,2.31,0,0,1-.9.15,1.71,1.71,0,0,1-1.87-1.83V3.18h-1.07V1.76h.3a.85.85,0,0,0,.91-.93V0h1.44Z"/><path class="cls-1" d="M131.39,3.35a2.12,2.12,0,0,0-.48-.05c-.81,0-1.52.39-1.52,1.66v2.7H127.8V1.76h1.54v.88A1.77,1.77,0,0,1,131,1.71c.13,0,.25,0,.37,0Z"/><path class="cls-1" d="M138.21,4.71a3.1,3.1,0,1,1-6.19,0,3.1,3.1,0,1,1,6.19,0Zm-1.6,0a1.51,1.51,0,1,0-3,0,1.51,1.51,0,1,0,3,0Z"/><path class="cls-1" d="M108.81,20.6a10,10,0,0,0,0,1.06h-1.53a4.44,4.44,0,0,1-.06-.68,1.83,1.83,0,0,1-1.65.83,2.9,2.9,0,0,1-2.88-3.11,2.88,2.88,0,0,1,2.83-3.08,1.78,1.78,0,0,1,1.67.73V13h1.57Zm-3-.22a1.49,1.49,0,0,0,1.45-1.69,1.45,1.45,0,0,0-1.45-1.64,1.48,1.48,0,0,0-1.46,1.65A1.49,1.49,0,0,0,105.81,20.38Z"/><path class="cls-1" d="M115.83,20a2.66,2.66,0,0,1-2.69,1.87,3,3,0,0,1-3-3.15,3,3,0,0,1,2.9-3.11,2.76,2.76,0,0,1,2.91,3.06c0,.23,0,.47,0,.49h-4.22a1.43,1.43,0,0,0,1.48,1.35,1.31,1.31,0,0,0,1.35-.9ZM114.34,18A1.18,1.18,0,0,0,113,16.88,1.28,1.28,0,0,0,111.7,18Z"/><path class="cls-1" d="M104.59,32.27l1.45-.22c.33,0,.44-.21.44-.42,0-.42-.32-.76-1-.76a1,1,0,0,0-1.13,1l-1.42-.3a2.35,2.35,0,0,1,2.53-2c1.87,0,2.57,1.06,2.57,2.25v2.9a7.55,7.55,0,0,0,.07.93h-1.46a3.58,3.58,0,0,1-.06-.7,2,2,0,0,1-1.74.87,1.86,1.86,0,0,1-2-1.77A1.82,1.82,0,0,1,104.59,32.27Zm1.89,1V33l-1.33.21c-.41.06-.73.28-.73.74a.69.69,0,0,0,.77.68A1.19,1.19,0,0,0,106.48,33.28Z"/><path class="cls-1" d="M110.78,32.71a1.52,1.52,0,0,0,1.51,1.67,1.34,1.34,0,0,0,1.35-1l1.41.47a2.74,2.74,0,0,1-2.76,2,3.13,3.13,0,0,1-.05-6.26,2.7,2.7,0,0,1,2.77,2l-1.42.48a1.29,1.29,0,0,0-1.31-1A1.5,1.5,0,0,0,110.78,32.71Z"/><path class="cls-1" d="M117.32,32.71a1.52,1.52,0,0,0,1.51,1.67,1.34,1.34,0,0,0,1.35-1l1.41.47a2.74,2.74,0,0,1-2.76,2,3.13,3.13,0,0,1,0-6.26,2.7,2.7,0,0,1,2.77,2l-1.42.48a1.29,1.29,0,0,0-1.31-1A1.5,1.5,0,0,0,117.32,32.71Z"/><path class="cls-1" d="M123.56,26.84a1,1,0,1,1-1,1A1,1,0,0,1,123.56,26.84Zm-.79,8.82v-5.9h1.59v5.9Z"/><path class="cls-1" d="M131.81,32.71a3.1,3.1,0,1,1-3.09-3.13A3,3,0,0,1,131.81,32.71Zm-1.59,0a1.51,1.51,0,1,0-1.5,1.68A1.51,1.51,0,0,0,130.22,32.71Zm-1-3.65H127.9l1.09-1.8h1.83Z"/><path class="cls-1" d="M134.67,35.66h-1.6v-5.9h1.55v.74a2,2,0,0,1,1.7-.89A2.08,2.08,0,0,1,138.46,32v3.71h-1.6V32.22a1,1,0,0,0-1.09-1.17,1.11,1.11,0,0,0-1.1,1.22Z"/><path class="cls-1" d="M104.34,46.71a1.52,1.52,0,0,0,1.51,1.67,1.35,1.35,0,0,0,1.35-1l1.4.47a2.72,2.72,0,0,1-2.75,2,3.06,3.06,0,0,1-3.11-3.13,3,3,0,0,1,3.06-3.13,2.7,2.7,0,0,1,2.77,2l-1.43.48a1.28,1.28,0,0,0-1.31-1A1.5,1.5,0,0,0,104.34,46.71Z"/><path class="cls-1" d="M109.78,49.66V41h1.6v8.68Z"/><path class="cls-1" d="M113.88,40.84a1,1,0,1,1,0,2,1,1,0,1,1,0-2Zm-.8,8.82v-5.9h1.6v5.9Z"/><path class="cls-1" d="M116.38,49.66v-5.9h1.53v.72a2,2,0,0,1,1.72-.89,1.82,1.82,0,0,1,1.75,1,2.07,2.07,0,0,1,1.88-1,2,2,0,0,1,2.13,2.25v3.82h-1.55v-3.5a1,1,0,0,0-1-1.11,1.08,1.08,0,0,0-1.09,1.16v3.45h-1.58v-3.5a1,1,0,0,0-1-1.11,1.08,1.08,0,0,0-1.1,1.16v3.45Z"/><path class="cls-1" d="M128.42,46.27l1.45-.22c.34,0,.44-.21.44-.42,0-.42-.32-.76-1-.76a1,1,0,0,0-1.13,1l-1.41-.3a2.34,2.34,0,0,1,2.53-2c1.87,0,2.56,1.06,2.56,2.25v2.9a7.55,7.55,0,0,0,.07.93h-1.46a4.57,4.57,0,0,1-.06-.7,2,2,0,0,1-1.74.87,1.85,1.85,0,0,1-2-1.77A1.81,1.81,0,0,1,128.42,46.27Zm1.89,1V47l-1.33.21c-.41.06-.73.28-.73.74a.69.69,0,0,0,.77.68A1.19,1.19,0,0,0,130.31,47.28Zm-.46-4.22h-1.29l1.09-1.8h1.83Z"/><path class="cls-1" d="M135.41,43.76h1.19v1.42h-1.19v2.47c0,.52.24.68.7.68a1.93,1.93,0,0,0,.49,0V49.6a2.31,2.31,0,0,1-.9.15,1.71,1.71,0,0,1-1.87-1.83V45.18h-1.07V43.76h.3a.84.84,0,0,0,.91-.93V42h1.44Z"/><path class="cls-1" d="M138.75,40.84a1,1,0,1,1-1,1A1,1,0,0,1,138.75,40.84ZM138,49.66v-5.9h1.59v5.9Z"/><path class="cls-1" d="M142.41,46.71a1.52,1.52,0,0,0,1.51,1.67,1.36,1.36,0,0,0,1.36-1l1.4.47a2.73,2.73,0,0,1-2.76,2,3.13,3.13,0,0,1,0-6.26,2.7,2.7,0,0,1,2.77,2l-1.42.48a1.29,1.29,0,0,0-1.31-1A1.5,1.5,0,0,0,142.41,46.71Z"/><path class="cls-1" d="M149.24,46.27l1.45-.22c.33,0,.44-.21.44-.42,0-.42-.32-.76-1-.76a1,1,0,0,0-1.13,1l-1.42-.3a2.35,2.35,0,0,1,2.53-2c1.88,0,2.57,1.06,2.57,2.25v2.9a7.55,7.55,0,0,0,.07.93H151.3a3.58,3.58,0,0,1-.06-.7,2,2,0,0,1-1.74.87,1.86,1.86,0,0,1-2-1.77A1.82,1.82,0,0,1,149.24,46.27Zm1.89,1V47l-1.33.21c-.41.06-.73.28-.73.74a.69.69,0,0,0,.77.68A1.19,1.19,0,0,0,151.13,47.28Z"/><path class="cls-1" d="M23.82,49.62A23.82,23.82,0,0,1,23.82,2"/><path class="cls-1" d="M95.29,49.62A23.82,23.82,0,0,1,95.29,2"/><path class="cls-1" d="M23.82,25.8a23.83,23.83,0,0,1,47.65,0"/></g></g></svg>