<svg xmlns="http://www.w3.org/2000/svg" viewBox="0 0 143.85 73.24"><defs><style>.cls-1{fill:none;stroke:#fff;stroke-miterlimit:10;stroke-width:0.25px;}.cls-2{fill:#fff;}</style></defs><g id="Layer_2" data-name="Layer 2"><g id="Capa_1" data-name="Capa 1"><path class="cls-1" d="M30.41,35.07V20A22.22,22.22,0,0,0,8.65,41.91H23.7V35.57a17.42,17.42,0,0,0,6.71-.5"/><path class="cls-1" d="M37.83,35.56v6.35H53A22.52,22.52,0,0,0,31.12,20V35.06a17.13,17.13,0,0,0,6.71.5"/><path class="cls-1" d="M23.76,42.62H8.65A22.23,22.23,0,0,0,30.41,64.55V53.08c-3.71-.95-6.55-4.75-6.65-10.46"/><path class="cls-1" d="M31.12,53.08V64.55A22.44,22.44,0,0,0,53,42.62H37.82c-.1,5.71-3,9.51-6.7,10.46"/><path class="cls-2" d="M11.45,62.67a3.83,3.83,0,0,1-.7-.57c-.21-.2-.34-.36-.52-.54l-.47-.44.07-.07a.38.38,0,0,0,.28.1c.14,0,.26-.11.59-.45l1.35-1.36c.25-.25.32-.35.34-.45a.38.38,0,0,0-.1-.3l.07-.07s.14.16.43.45l.65.63a1.75,1.75,0,0,1,.23,2.67,1.7,1.7,0,0,1-2.22.4m1.81-2.89a2.43,2.43,0,0,0-.3-.27l-2,2c-.11.12-.16.19-.1.29A1,1,0,0,0,11,62c.6.6,1.17.54,2-.29,1-1,.58-1.62.24-1.95"/><path class="cls-2" d="M15.2,65.81l-1.26-.92c-.25-.19-.49-.37-.75-.54l.06-.08a.37.37,0,0,0,.29.06c.14,0,.24-.15.52-.54l1.13-1.54c.21-.29.27-.39.28-.49a.38.38,0,0,0-.15-.28l.06-.08c.23.19.43.33.68.52l1.28.94s-.27.37-.41.58l-.09-.06a.43.43,0,0,0,.07-.42c-.06-.13-.14-.21-.42-.41l-.37-.27-.8,1.1.37.28a.77.77,0,0,0,.42.19.5.5,0,0,0,.32-.18l.09.07c-.07.09-.13.15-.34.43s-.23.34-.31.45l-.09-.07a.42.42,0,0,0,.08-.32.72.72,0,0,0-.33-.37l-.36-.27-.73,1c-.15.2-.13.25.11.43l.08.06c.24.18.43.3.62.27a.54.54,0,0,0,.33-.22l.1.07c-.17.19-.48.62-.48.62"/><path class="cls-2" d="M21.87,65.51c-.06,0-.22.18-.5.43L19.14,68l-.42-.12.29-3c0-.41,0-.67,0-.71a.32.32,0,0,0-.17-.26l0-.09.62.32c.15.07.53.24.69.29l0,.1a.35.35,0,0,0-.26,0,.16.16,0,0,0-.1.08,1.3,1.3,0,0,0-.06.33l-.19,1.84c0,.35-.07.52-.07.52l.38-.39,1.33-1.3a1.49,1.49,0,0,0,.21-.25.15.15,0,0,0,0-.13c0-.08-.13-.13-.2-.17l0-.09.47.25c.17.07.31.14.48.2l0,.09a.33.33,0,0,0-.32,0"/><path class="cls-2" d="M23.62,69.61l-.71-.2,0-.1a.44.44,0,0,0,.27,0,.2.2,0,0,0,.08-.1,1.07,1.07,0,0,0,0-.33l0-.82-1-.3-.5.66a1,1,0,0,0-.18.27.19.19,0,0,0,0,.13.46.46,0,0,0,.22.14l0,.09a4.91,4.91,0,0,0-.5-.17,4.25,4.25,0,0,0-.51-.14l0-.09a.34.34,0,0,0,.31-.07l.44-.5,1.93-2.35.41,0,.13,3c0,.41,0,.67.05.71a.31.31,0,0,0,.21.23l0,.09c-.15-.06-.51-.18-.66-.22M23.24,67a3.4,3.4,0,0,1,0-.53l-.81,1.06.83.26,0-.79Z"/><path class="cls-2" d="M27.53,70.37,26,70.13c-.31,0-.61-.11-.92-.14l0-.1a.39.39,0,0,0,.29-.08c.11-.09.14-.24.22-.71L26,67.21c.05-.35.06-.47,0-.56a.38.38,0,0,0-.26-.18v-.1l.8.15.82.11,0,.11a.5.5,0,0,0-.45.09c-.1.1-.13.27-.2.7l-.34,2.1c0,.25,0,.29.29.34h.1c.3,0,.49.07.65,0a.59.59,0,0,0,.19-.35l.12,0c-.07.25-.15.76-.15.76"/><path class="cls-2" d="M30.32,68.93a1.06,1.06,0,0,1-.36-.06v-.11h.12a.6.6,0,0,0,.39-.1.89.89,0,0,0,.3-.74c0-.8-.44-.83-.73-.84a1.17,1.17,0,0,0-.23,0l-.08,2.45c0,.43,0,.6.06.71a.51.51,0,0,0,.43.19v.1c-.22,0-.7,0-.9,0a6.24,6.24,0,0,0-.75,0v-.1a.38.38,0,0,0,.27-.12c.1-.1.11-.26.13-.74L29,67.63a1.09,1.09,0,0,0-.06-.56.39.39,0,0,0-.28-.15v-.1l.67,0c.31,0,.5,0,.84,0a2.78,2.78,0,0,1,.63.07.89.89,0,0,1,.75,1c0,.74-.6,1-1.27,1"/><path class="cls-2" d="M34.76,70.28l-.74.1v-.1a.46.46,0,0,0,.25-.09.13.13,0,0,0,0-.13.88.88,0,0,0-.11-.31L33.85,69l-1,.11-.21.8a.94.94,0,0,0-.05.32.13.13,0,0,0,.05.11.35.35,0,0,0,.26,0v.1l-.52,0a4.67,4.67,0,0,0-.52.08v-.1a.33.33,0,0,0,.26-.19,5.16,5.16,0,0,0,.21-.63l.87-2.91.4-.11,1.28,2.71c.17.37.3.6.32.64a.3.3,0,0,0,.28.12v.1l-.69,0m-1.35-2.22a3.77,3.77,0,0,1-.2-.48l-.34,1.28.87-.08-.33-.72Z"/><path class="cls-2" d="M39.3,69.32a1,1,0,0,1-1-.23c-.16-.12-.69-.54-1.06-.86l-.23.06.19.73c.09.34.14.46.21.52a.35.35,0,0,0,.31.07l0,.1-.71.16c-.19,0-.51.14-.72.2l0-.09a.37.37,0,0,0,.23-.19c.07-.13,0-.28-.08-.74L36,67.19a1.14,1.14,0,0,0-.21-.52.36.36,0,0,0-.31-.06l0-.1.59-.13.82-.23a3.48,3.48,0,0,1,.63-.11.89.89,0,0,1,.94.68,1,1,0,0,1-.54,1.18l1.19.82c.34.23.58.38.81.34l0,.09a5.59,5.59,0,0,1-.58.17m-2.53-2.93-.23.07.42,1.6.25-.06a.65.65,0,0,0,.21-.07c.07,0,.4-.2.22-.93s-.66-.67-.87-.61"/><path class="cls-2" d="M43.23,67.7l-.67.32,0-.09a.42.42,0,0,0,.21-.16.17.17,0,0,0,0-.14,1.11,1.11,0,0,0-.21-.25l-.55-.6-1,.42.06.83a1.48,1.48,0,0,0,0,.32.13.13,0,0,0,.09.09.46.46,0,0,0,.26,0l0,.09c-.18.07-.31.11-.49.19l-.46.23,0-.09a.32.32,0,0,0,.18-.26,6.42,6.42,0,0,0,0-.66l-.07-3,.34-.23L43,66.82c.28.29.47.47.51.5a.29.29,0,0,0,.3,0l0,.09-.64.26m-2-1.69c-.25-.27-.34-.39-.34-.39L41,66.94l.79-.35L41.25,66Z"/><path class="cls-2" d="M43.63,62.5l-.82,1-.11,0L43,62.37l0,0,.6.08,0,.08Zm.24.92c0,.14.05.28.29.69l1,1.65c.17.3.25.4.34.44a.38.38,0,0,0,.32,0l.05.09-.66.36-.63.4-.05-.08a.37.37,0,0,0,.17-.25c0-.14,0-.27-.29-.68l-1-1.65c-.17-.3-.25-.4-.34-.44a.37.37,0,0,0-.32,0l0-.09.66-.36.63-.4,0,.09a.35.35,0,0,0-.17.24"/><path class="cls-2" d="M47.47,65.18a3.11,3.11,0,0,1-.78.43l0-.07c-.16-.21-.28-.35-.38-.47l.09-.07a.57.57,0,0,0,.4.2.93.93,0,0,0,.54-.21c.57-.43.3-.82.23-.91-.21-.29-.48-.25-.84-.22l-.37,0a1.1,1.1,0,0,1-1.14-.43c-.16-.22-.47-.86.46-1.55a5.26,5.26,0,0,1,.72-.46s.06.1.17.25a3.13,3.13,0,0,0,.24.31l-.09.07a.48.48,0,0,0-.32-.17.86.86,0,0,0-.56.19c-.46.35-.32.65-.2.8s.39.25.74.21l.41,0a1.13,1.13,0,0,1,1.22.42c.44.6.16,1.21-.49,1.69"/><path class="cls-2" d="M50.83,62.33a1.69,1.69,0,0,1-2.58,0,1.79,1.79,0,0,1,0-2.7,1.68,1.68,0,0,1,2.58,0,1.79,1.79,0,0,1,0,2.7m-2.45-2.5c-.54.54-.22,1.24.41,1.87s1.39.94,1.89.44.21-1.24-.41-1.87-1.4-.94-1.89-.44"/><path class="cls-2" d="M6.43,51.8a1,1,0,0,1,.1.36l-.1,0,0-.11a.61.61,0,0,0-.26-.32.88.88,0,0,0-.79,0c-.74.3-.58.74-.48,1,0,.09.11.21.11.21l2.27-.92c.4-.17.56-.22.63-.34a.51.51,0,0,0,0-.47l.1,0c.07.21.24.66.31.84s.19.47.3.68l-.09,0a.4.4,0,0,0-.22-.2c-.13-.05-.28,0-.72.18l-1.77.72c-.33.13-.44.19-.49.28a.35.35,0,0,0,0,.31l-.1,0c-.07-.21-.16-.44-.23-.62s-.2-.46-.33-.78a2.92,2.92,0,0,1-.18-.6A.88.88,0,0,1,5,51.06a1.07,1.07,0,0,1,1.45.74"/><path class="cls-2" d="M6.92,47.78A1.69,1.69,0,0,1,5.57,50a1.8,1.8,0,0,1-2.31-1.41,1.69,1.69,0,0,1,1.36-2.2,1.79,1.79,0,0,1,2.3,1.41m-3.42.76c.18.74.94.84,1.81.64s1.53-.68,1.37-1.37-.94-.84-1.8-.64-1.54.68-1.38,1.37"/><path class="cls-2" d="M2.73,42.13c.12.09.27.09.75.06L6.2,42l0,.31-2.7,2.27a.75.75,0,0,1-.2.15l2.21-.12c.35,0,.47,0,.55-.1a.4.4,0,0,0,.13-.29h.1c0,.22,0,.33,0,.52a4.13,4.13,0,0,0,.06.56h-.1a.4.4,0,0,0-.14-.26C6,45,5.86,45,5.38,45l-1.91.1c-.35,0-.47,0-.55.11a.34.34,0,0,0-.12.29H2.7c0-.22,0-.45,0-.64s0-.34-.05-.49l2.06-1.73A1.37,1.37,0,0,1,5,42.46l-1.63.09c-.35,0-.47,0-.55.1a.36.36,0,0,0-.12.29h-.1c0-.22,0-.35,0-.55s0-.29,0-.53h.1a.38.38,0,0,0,.13.26"/><path class="cls-2" d="M3.55,38.26a.44.44,0,0,0-.4.15A1.19,1.19,0,0,0,3,39l0,.2,2.59.25c.35,0,.47,0,.56,0s.17-.33.18-.38h.1c0,.21-.08.66-.1.85s-.05.64-.06.86h-.1a.6.6,0,0,0-.1-.39c-.09-.11-.24-.13-.71-.17L2.92,40l0,.2a1.09,1.09,0,0,0,0,.59.42.42,0,0,0,.36.22v.12C3,41,2.56,41,2.56,41l.28-2.9s.46,0,.72,0v.12Z"/><path class="cls-2" d="M3.45,36.11c.09.12.24.15.71.25L6,36.75c.34.07.47.08.56,0a.37.37,0,0,0,.19-.25l.1,0c0,.21-.13.54-.17.73s-.1.52-.13.73l-.1,0a.37.37,0,0,0-.06-.29c-.09-.11-.24-.15-.71-.24l-1.87-.39c-.35-.07-.47-.08-.56,0a.38.38,0,0,0-.2.25l-.09,0c0-.21.13-.54.17-.73s.1-.52.13-.74l.1,0a.37.37,0,0,0,.06.29"/><path class="cls-2" d="M5,32.73a.42.42,0,0,0-.42.06c-.11.1-.15.2-.26.53l-.14.43,1.3.42.15-.45a.69.69,0,0,0,0-.46A.4.4,0,0,0,5.37,33l0-.12c.12,0,.19.08.52.18l.52.16,0,.11a.47.47,0,0,0-.32,0,.76.76,0,0,0-.25.43l-.14.44.94.3c.34.1.45.12.54.09s.24-.28.26-.33l.1,0c-.08.21-.23.62-.29.81s-.12.42-.2.73l-.1,0a.41.41,0,0,0,0-.3c-.07-.12-.22-.18-.68-.32l-1.82-.59a1.24,1.24,0,0,0-.55-.1.38.38,0,0,0-.22.23l-.1,0c.11-.29.18-.51.28-.81l.48-1.52s.44.15.69.21l0,.11Z"/><path class="cls-2" d="M5.37,30.46c.06.13.2.19.63.39l1.76.77c.32.14.44.18.53.16a.38.38,0,0,0,.25-.2l.09,0c-.1.19-.25.5-.33.68s-.2.48-.28.69l-.09,0a.39.39,0,0,0,0-.3c-.06-.13-.2-.2-.64-.39l-1.75-.78A1.17,1.17,0,0,0,5,31.32a.41.41,0,0,0-.24.21l-.09,0c.1-.2.24-.5.32-.68s.21-.49.28-.69l.1,0a.34.34,0,0,0,0,.3"/><path class="cls-2" d="M7.83,27a.4.4,0,0,0-.35,0,1.07,1.07,0,0,0-.48.46c-.25.42-.54,1.12.76,1.89.8.47,1.52.53,2-.28a.8.8,0,0,0,.13-.64.48.48,0,0,0-.23-.27l.06-.1c.13.09.28.19.5.32l.08.05a3.12,3.12,0,0,1-.37.87,2,2,0,0,1-1.37,1.09,1.8,1.8,0,0,1-1.17-.29,1.85,1.85,0,0,1-.93-2,2.76,2.76,0,0,1,.33-.79,7.13,7.13,0,0,1,.5-.72l.29.19.31.17-.06.1Z"/><path class="cls-2" d="M8.84,24.81c0,.14.15.23.53.53l1.52,1.16c.28.21.39.27.49.28a.39.39,0,0,0,.28-.14l.08.06c-.14.16-.36.43-.47.58s-.32.43-.44.61l-.08-.06a.37.37,0,0,0,.07-.29c0-.14-.15-.24-.53-.53L8.77,25.84c-.28-.21-.39-.27-.49-.28a.37.37,0,0,0-.28.15l-.08-.07c.14-.16.36-.42.48-.58l.43-.61.08.07a.39.39,0,0,0-.07.29"/><path class="cls-2" d="M13.91,24.3l-.5.55-.07-.07a.39.39,0,0,0,.14-.23.14.14,0,0,0-.06-.12.85.85,0,0,0-.28-.17l-.74-.34-.72.75.35.74a1.84,1.84,0,0,0,.17.29.12.12,0,0,0,.11,0c.09,0,.17-.08.23-.13l.07.07-.38.36a4.25,4.25,0,0,0-.35.39l-.07-.07a.34.34,0,0,0,.08-.31c0-.08-.1-.27-.25-.62l-1.21-2.78.24-.35,2.72,1.26.66.27a.28.28,0,0,0,.29-.08l.08.07c-.13.11-.39.37-.51.48m-2.46-.83a3.32,3.32,0,0,1-.46-.24l.57,1.2.61-.62-.72-.34Z"/><path class="cls-2" d="M16.75,17.92c0,.14.06.27.32.67l.62.95a2.48,2.48,0,0,1,.42.8,1.36,1.36,0,0,1-.8,1.38c-.78.52-1.23.41-1.56.19a3,3,0,0,1-.59-.73l-.7-1.07c-.19-.3-.27-.39-.37-.43a.36.36,0,0,0-.31,0l0-.08.64-.4c.16-.1.43-.3.61-.43l0,.09a.39.39,0,0,0-.16.25c0,.14.06.27.32.67L16,21.06c.27.42.59.83,1.27.39s.39-1,.15-1.33l-.9-1.37c-.19-.3-.27-.39-.36-.43a.38.38,0,0,0-.32,0l0-.08.51-.31.55-.39.05.08a.39.39,0,0,0-.16.26"/><path class="cls-2" d="M21.07,15.89c0,.14,0,.28.2.72l1.09,2.5-.29.13L19,17.5a.87.87,0,0,1-.21-.14l.88,2c.14.32.21.43.29.48a.37.37,0,0,0,.32,0l0,.09c-.21.08-.31.11-.49.19a3.19,3.19,0,0,0-.5.24l0-.09a.4.4,0,0,0,.2-.22c0-.14,0-.28-.2-.72l-.77-1.76c-.14-.32-.2-.43-.29-.48a.35.35,0,0,0-.31,0l0-.1.6-.23.43-.22,2.34,1.33a2.25,2.25,0,0,1,.27.18l-.64-1.49c-.14-.32-.21-.43-.29-.48a.37.37,0,0,0-.32,0l0-.09.51-.2a2.93,2.93,0,0,0,.48-.23l0,.09a.4.4,0,0,0-.2.22"/><path class="cls-2" d="M23.5,15.16c-.06.13,0,.28.11.74l.53,1.84c.1.34.15.45.22.51a.36.36,0,0,0,.31.06l0,.1-.73.18-.71.23,0-.09a.35.35,0,0,0,.22-.2c.07-.13,0-.28-.11-.74L22.82,16c-.1-.33-.15-.45-.22-.51a.36.36,0,0,0-.31-.06l0-.09L23,15.1l.71-.23,0,.1a.37.37,0,0,0-.23.19"/><path class="cls-2" d="M27.86,14.34c0,.07-.08.28-.17.64l-.68,3-.4.14-1.45-2.63c-.2-.35-.34-.57-.37-.61a.3.3,0,0,0-.28-.11l0-.1c.16,0,.53-.06.69-.09l.73-.14,0,.09a.53.53,0,0,0-.25.11.15.15,0,0,0,0,.13,1,1,0,0,0,.14.3l.88,1.63c.17.31.24.47.24.47s0-.2.09-.54l.36-1.82a.86.86,0,0,0,0-.33.11.11,0,0,0-.06-.11.39.39,0,0,0-.26,0l0-.1.53-.07.51-.1v.09a.32.32,0,0,0-.24.21"/><path class="cls-2" d="M31.41,17.61l-1.56,0c-.31,0-.61,0-.92,0v-.1a.36.36,0,0,0,.27-.13c.09-.11.09-.26.08-.74l-.05-1.92c0-.35,0-.47-.08-.55a.36.36,0,0,0-.29-.13V14c.31,0,.54,0,.86,0l1.59,0s0,.47,0,.72h-.12a.43.43,0,0,0-.19-.37,1,1,0,0,0-.58-.07H30l0,1.37.47,0a.72.72,0,0,0,.45-.1.46.46,0,0,0,.14-.33h.11v.55c0,.35,0,.42,0,.54H31.1A.4.4,0,0,0,31,16a.75.75,0,0,0-.49-.1H30l0,1.23c0,.25.05.28.35.28h.1a.9.9,0,0,0,.66-.16.57.57,0,0,0,.12-.38h.12c0,.26,0,.78,0,.78"/><path class="cls-2" d="M35.21,18a1,1,0,0,1-.85-.58c-.1-.17-.45-.76-.67-1.19l-.23,0-.1.75c0,.35,0,.47,0,.56a.33.33,0,0,0,.26.17v.1l-.72-.11-.74-.07v-.1a.35.35,0,0,0,.29-.09c.11-.09.13-.24.19-.72l.24-1.9c0-.35,0-.47,0-.56a.33.33,0,0,0-.26-.17V14l.6.09c.39,0,.49,0,.84.09a2.71,2.71,0,0,1,.63.13.88.88,0,0,1,.62,1,1,1,0,0,1-.93.91s.53.78.8,1.2.4.57.63.61v.09a3.8,3.8,0,0,1-.6-.05m-1.28-3.66a1.1,1.1,0,0,0-.24,0L33.49,16a1.7,1.7,0,0,0,.26,0A.76.76,0,0,0,34,16c.08,0,.46,0,.55-.79s-.36-.85-.58-.88"/><path class="cls-2" d="M37,18.45a2.91,2.91,0,0,1-.82-.34l0-.09c.06-.25.1-.43.13-.59l.12,0a.55.55,0,0,0,.08.44.85.85,0,0,0,.5.29c.7.19.83-.26.86-.37.1-.35-.1-.54-.34-.8l-.25-.27a1.11,1.11,0,0,1-.37-1.16c.07-.27.38-.91,1.5-.6a5.3,5.3,0,0,1,.81.28,1.62,1.62,0,0,0-.09.29c-.08.3-.1.39-.1.39l-.11,0a.47.47,0,0,0-.06-.35.78.78,0,0,0-.5-.32c-.55-.15-.7.15-.75.33s0,.46.29.71l.29.29a1.14,1.14,0,0,1,.41,1.23c-.19.72-.85.87-1.63.65"/><path class="cls-2" d="M41.44,16.29c-.13.06-.19.2-.37.65l-.69,1.78c-.13.33-.16.45-.14.55a.38.38,0,0,0,.21.23l0,.1-.69-.3L39,19.05l0-.09a.4.4,0,0,0,.3,0c.12-.06.19-.2.36-.65l.7-1.78c.13-.33.15-.45.13-.55a.35.35,0,0,0-.21-.23l0-.1.69.3.7.25,0,.09a.38.38,0,0,0-.29,0"/><path class="cls-2" d="M43.12,20.85a3.3,3.3,0,0,1-.84-.36l-.64-.37c-.17-.1-.38-.2-.58-.3l0-.09a.36.36,0,0,0,.3,0c.13-.05.21-.18.44-.6l.93-1.68c.16-.31.21-.42.2-.52a.35.35,0,0,0-.18-.26l.05-.09a5.34,5.34,0,0,0,.53.31l.81.43a1.74,1.74,0,0,1,1,2.5,1.7,1.7,0,0,1-2,1m.93-3.28a2.77,2.77,0,0,0-.35-.17l-1.37,2.49c-.08.14-.1.22,0,.31a1.21,1.21,0,0,0,.23.14c.74.41,1.27.19,1.83-.82.68-1.24.1-1.72-.32-1.95"/><path class="cls-2" d="M46.71,23.43c-.13-.1-.46-.34-.6-.43l.06-.08a.37.37,0,0,0,.25.1.14.14,0,0,0,.11-.06,1,1,0,0,0,.13-.3l.26-.78-.82-.63-.7.44a.78.78,0,0,0-.26.19.15.15,0,0,0,0,.12c0,.09.1.16.16.21l-.06.08L44.8,22c-.15-.11-.28-.21-.43-.3l.06-.08a.32.32,0,0,0,.32,0l.59-.31L48,19.79l.36.19-.94,2.85a6.58,6.58,0,0,0-.19.68.29.29,0,0,0,.11.29l-.06.07-.54-.44m.55-2.54a3.67,3.67,0,0,1,.19-.48l-1.13.7.69.53.25-.75Z"/><path class="cls-2" d="M49.17,25.75a3.62,3.62,0,0,1-.69-.6L48,24.59l-.45-.46.07-.06a.4.4,0,0,0,.28.11c.14,0,.25-.1.6-.43l1.4-1.31c.26-.24.34-.33.36-.43a.35.35,0,0,0-.09-.3l.07-.07s.13.16.41.46l.63.66a1.74,1.74,0,0,1,.13,2.67,1.7,1.7,0,0,1-2.23.32m1.91-2.82a2.53,2.53,0,0,0-.28-.28l-2.08,1.94c-.12.11-.17.18-.11.29a.8.8,0,0,0,.17.21c.57.61,1.15.57,2-.22,1-1,.64-1.59.31-1.94"/><path class="cls-2" d="M55.19,29.42a.42.42,0,0,0,.21-.3,1.08,1.08,0,0,0-.17-.63c-.25-.42-.72-1-2-.25-.8.47-1.2,1.07-.72,1.88a.78.78,0,0,0,.49.43.46.46,0,0,0,.35-.07l.06.1c-.14.07-.3.15-.52.28l-.08.05a3.43,3.43,0,0,1-.59-.75,2,2,0,0,1-.28-1.72,2,2,0,0,1,3-.73,3,3,0,0,1,.54.67c.21.37.36.74.39.78l-.31.17-.3.19-.06-.1Z"/><path class="cls-2" d="M54,34c-.06-.16-.22-.53-.3-.68l.1,0a.37.37,0,0,0,.16.22.15.15,0,0,0,.13,0,1,1,0,0,0,.26-.2l.61-.53-.39-1-.82,0a1.16,1.16,0,0,0-.33,0s-.08,0-.09.08a.39.39,0,0,0,0,.26l-.1,0c-.06-.18-.1-.31-.17-.5s-.14-.31-.22-.47l.09,0a.36.36,0,0,0,.26.2c.07,0,.29,0,.66,0l3,0,.22.35-2.24,2c-.31.28-.49.46-.52.49a.29.29,0,0,0,0,.3l-.1,0c0-.15-.18-.5-.24-.65M55.74,32a3.37,3.37,0,0,1,.4-.32l-1.33,0,.33.81.6-.52Z"/><path class="cls-2" d="M57.78,36.66a.44.44,0,0,0,.32-.28A1.12,1.12,0,0,0,58,35.8L58,35.6l-2.52.65c-.34.09-.45.14-.51.21a.5.5,0,0,0,0,.42l-.11,0c0-.22-.14-.65-.19-.84s-.17-.62-.24-.83l.1,0a.65.65,0,0,0,.23.34c.12.06.26,0,.73-.09l2.36-.61-.06-.2c-.08-.34-.12-.44-.22-.54a.44.44,0,0,0-.42-.09l0-.11c.25-.05.69-.17.69-.17l.74,2.83s-.45.11-.69.19l0-.11Z"/><path class="cls-2" d="M55.2,39.69a1.68,1.68,0,0,1,1.62-2,1.79,1.79,0,0,1,2.11,1.68,1.68,1.68,0,0,1-1.62,2,1.79,1.79,0,0,1-2.11-1.69m3.48-.32c-.07-.75-.82-.95-1.7-.86s-1.61.48-1.54,1.19.83.95,1.71.86,1.61-.49,1.53-1.19m1,.66-.54-1.15.09-.08.84.7,0,0-.32.52-.09,0Z"/><path class="cls-2" d="M55.29,44.66l.08-1.52c0-.31,0-.61,0-.92h.1a.4.4,0,0,0,.11.28c.1.1.26.11.74.14l1.91.09c.35,0,.47,0,.56,0a.39.39,0,0,0,.15-.28h.1c0,.21,0,.61-.06.81s0,.6,0,.82h-.1a.54.54,0,0,0-.15-.45c-.11-.09-.28-.09-.71-.11l-2.13-.11c-.25,0-.29,0-.3.34v.09c0,.31,0,.5.12.64a.53.53,0,0,0,.37.15v.12c-.25,0-.78-.06-.78-.06"/><path class="cls-2" d="M58.4,47.07c-.09-.11-.24-.14-.71-.22l-1.89-.3c-.35,0-.47,0-.56,0a.37.37,0,0,0-.19.26l-.1,0c0-.21.11-.55.14-.74s.08-.52.1-.74l.1,0a.39.39,0,0,0,.08.29c.09.11.24.14.71.21l1.89.3c.35.06.47.06.56,0a.39.39,0,0,0,.19-.26h.1c0,.22-.11.55-.14.74s-.08.53-.1.74h-.1a.39.39,0,0,0-.08-.29"/><path class="cls-2" d="M56.9,51a.36.36,0,0,0,.35,0,1,1,0,0,0,.34-.56c.14-.48.24-1.23-1.22-1.64-.89-.25-1.6-.12-1.86.78a.82.82,0,0,0,0,.65.5.5,0,0,0,.3.21l0,.11-.57-.18-.09,0a3.51,3.51,0,0,1,.14-.94A2,2,0,0,1,55.34,48a1.8,1.8,0,0,1,1.2,0A1.84,1.84,0,0,1,58,49.65a2.7,2.7,0,0,1-.11.85c-.12.41-.29.77-.3.82l-.33-.11-.34-.08,0-.12Z"/><path class="cls-2" d="M52.79,53.27c.07-.15.23-.53.28-.69l.09,0a.41.41,0,0,0,0,.27.15.15,0,0,0,.09.1,1.32,1.32,0,0,0,.32,0l.81.07.43-1-.59-.57a1.11,1.11,0,0,0-.25-.21.12.12,0,0,0-.13,0c-.08,0-.13.14-.16.2l-.09,0c.09-.17.15-.29.23-.47a4,4,0,0,0,.2-.48l.09,0a.33.33,0,0,0,0,.32c0,.06.19.22.44.49l2.09,2.21-.11.4-3-.25c-.4,0-.66,0-.71,0a.3.3,0,0,0-.25.17l-.09,0c.08-.14.24-.48.31-.62m2.59-.06a3.37,3.37,0,0,1,.52.07L55,52.35l-.36.79.78.07Z"/><path class="cls-2" d="M32.59,28.92h.58a1,1,0,0,1-.34-.61c0-.48.58-.81.58-1.43S33,25.93,33,25.36s.38-.89.38-1.32a1.22,1.22,0,0,0-.24-.69h-.53a1.62,1.62,0,0,1,.24.69c0,.43-.38.71-.38,1.33s.48,1.05.48,1.53-.57.84-.57,1.41a.9.9,0,0,0,.23.61"/><path class="cls-2" d="M32.83,32.72v.62H47.54v-.57H43.75A2.74,2.74,0,0,0,46,29.93c0-2.3-2.58-4.6-6.31-4.6a7.88,7.88,0,0,0-2.36.32,1.36,1.36,0,0,1,0-.29c0-.52.38-.88.38-1.31a1.23,1.23,0,0,0-.24-.7h-.53a1.62,1.62,0,0,1,.24.69c0,.43-.38.71-.38,1.33a1.18,1.18,0,0,0,.1.45,4.58,4.58,0,0,0-.83.41,2.16,2.16,0,0,1-.27-.87c0-.52.38-.88.38-1.31a1.23,1.23,0,0,0-.24-.7h-.52a1.76,1.76,0,0,1,.23.69c0,.43-.38.71-.38,1.33a3.5,3.5,0,0,0,.39,1.14,5,5,0,0,0-1.49,1.83v-.11c0-.38.58-.86.58-1.34s-.43-.95-.43-1.53.38-.88.38-1.32a1.22,1.22,0,0,0-.24-.69h-.53a1.62,1.62,0,0,1,.24.69c0,.43-.38.71-.38,1.33s.48,1.05.48,1.53-.58.84-.58,1.41a.91.91,0,0,0,.24.61h.53c.48-1.43,2-3.1,5.21-3.1,3.54,0,5.74,2.26,5.74,4.08a2.13,2.13,0,0,1-2.2,2.34c-1.53,0-2.06-1-2.06-1.77a1.61,1.61,0,0,1,1.1-1.57,3.58,3.58,0,0,0-3.39-1.83,3.5,3.5,0,0,0-3.4,1.85H36a2.23,2.23,0,0,1,.68-.75.57.57,0,0,0,0,.13.93.93,0,0,0,.23.62h.58a1,1,0,0,1-.34-.61.78.78,0,0,1,.18-.46,4.27,4.27,0,0,1,1.5-.25,3.15,3.15,0,0,1,2.63,1.11,2.18,2.18,0,0,0-1,1.79,2.27,2.27,0,0,0,2,2.27H37.28c0-1-1.29-1-1.29-1.28s1.72-.86,1.72-2H32.4c0,1.14,1.72,1.69,1.72,2s-1.29.35-1.29,1.26m.24-2.8h4c0,.71-1.53,1-1.53,1.54s1.15.45,1.15,1.31H33.45c0-.86,1.15-.73,1.15-1.31s-1.53-.83-1.53-1.54"/><path class="cls-2" d="M41.44,34.87a1.06,1.06,0,0,0-.67-.19,1.63,1.63,0,0,0-1.63,1.68c0,1.1,1.06,1.43,1.06,2.1a1,1,0,0,1-.53.81,1.08,1.08,0,0,0,.76.24,1.59,1.59,0,0,0,1.63-1.67c0-1-1-1.39-1-2.06a1.52,1.52,0,0,1,.38-.91m.14,3a1.14,1.14,0,0,1-1.15,1.19,1.17,1.17,0,0,0,.29-.72c0-.81-1-1.19-1-2a1.11,1.11,0,0,1,1.1-1.2,1.55,1.55,0,0,0-.24.82c0,.76,1,1.19,1,2"/><path class="cls-2" d="M47.94,35.78a1.52,1.52,0,0,1,.38-.91,1,1,0,0,0-.67-.19A1.63,1.63,0,0,0,46,36.36c0,1.1,1,1.43,1,2.1a1,1,0,0,1-.53.81,1.11,1.11,0,0,0,.77.24,1.58,1.58,0,0,0,1.62-1.67c0-1-1-1.39-1-2.06m-.62,3.3a1.23,1.23,0,0,0,.29-.72c0-.81-1.06-1.19-1.06-2a1.11,1.11,0,0,1,1.1-1.2,1.55,1.55,0,0,0-.24.82c0,.76,1.06,1.19,1.06,2a1.15,1.15,0,0,1-1.15,1.19"/><path class="cls-2" d="M44.88,34.87a1,1,0,0,0-.67-.19,1.62,1.62,0,0,0-1.62,1.68c0,1.1,1,1.43,1,2.1a1,1,0,0,1-.53.81,1.11,1.11,0,0,0,.77.24,1.59,1.59,0,0,0,1.62-1.67c0-1-1-1.39-1-2.06a1.52,1.52,0,0,1,.38-.91m.14,3a1.14,1.14,0,0,1-1.14,1.19,1.22,1.22,0,0,0,.28-.72c0-.81-1-1.19-1-2a1.11,1.11,0,0,1,1.1-1.2,1.55,1.55,0,0,0-.24.82c0,.76,1.05,1.19,1.05,2"/><path class="cls-2" d="M23.86,29.4c0,.2.05.29.1.29s.15-.14.24-.19a.28.28,0,0,0,.29.24.25.25,0,0,0,.29-.29c.15.05.2.19.29.19s.15,0,.15-.19-.24-.39-.63-.39a.92.92,0,0,0-.73.34m-.67,2.91a.34.34,0,0,0,.33.19.34.34,0,0,0,.34-.19.36.36,0,0,0,0-.2c-.05,0-.1.1-.3.1a.33.33,0,0,1-.29-.1.36.36,0,0,0,0,.2m-.25-1.16c.29,0,.34.09.58.09s.3-.09.59-.09a.71.71,0,0,0-.1-.3c-.39,0-.39.15-.49.15s-.09-.15-.48-.15a.71.71,0,0,0-.1.3m-.14.53.05.24c0-.05.14-.05.24-.05s.19.05.43.05.3-.05.44-.05a.35.35,0,0,1,.24.05l.05-.24a.55.55,0,0,0-.34-.1c-.14,0-.24.05-.39.05s-.24-.05-.38-.05a.55.55,0,0,0-.34.1m-1-2.23c0,.15.1.19.14.19s.15-.14.3-.19a.25.25,0,0,0,.29.29.28.28,0,0,0,.29-.24c.09.05.19.19.24.19s.1-.09.1-.29a.92.92,0,0,0-.73-.34c-.39,0-.63.1-.63.39m-1.36-.24c-.24.29,0,.53.25.53s.67-.14,1.06-.82c.24-.34.34-.58.78-.58.63,0,.58-.63,1-.63s.34.63,1,.63c.44,0,.54.24.78.58.39.68.77.82,1.06.82s.49-.24.25-.53a.34.34,0,0,1-.29.19c-.39,0-.54-.34-.83-.77.15,0,.29.24.49.24a.24.24,0,0,0,.24-.34c-.78,0-.58-.53-1.55-.53-.44,0-.58-.63-1.12-.63s-.67.63-1.11.63c-1,0-.77.53-1.55.53a.24.24,0,0,0,.24.34c.2,0,.34-.2.49-.24-.29.43-.44.77-.83.77a.34.34,0,0,1-.29-.19m-.92.77a.78.78,0,0,0,.44.63.47.47,0,0,0-.1.34.66.66,0,0,0,.68.63.54.54,0,0,0-.15.39.6.6,0,0,0,.63.53c.3,0,.49-.19.44-.43a.81.81,0,0,1-.34.09c-.19,0-.39-.09-.39-.29a.41.41,0,0,1,.1-.29c.19,0,.29-.1.29-.34a1.27,1.27,0,0,1-.43.05c-.25,0-.49-.14-.49-.39a.38.38,0,0,1,.1-.24.94.94,0,0,0,.82-.1c.2,1.12,1.07,2.86,2.37,2.81s2.18-1.69,2.38-2.81a.94.94,0,0,0,.82.1.38.38,0,0,1,.1.24c0,.25-.24.39-.49.39a1.27,1.27,0,0,1-.43-.05c0,.24.09.29.29.34a.41.41,0,0,1,.1.29c0,.2-.2.29-.39.29a.81.81,0,0,1-.34-.09c0,.24.14.43.43.43a.59.59,0,0,0,.63-.53.54.54,0,0,0-.14-.39.66.66,0,0,0,.68-.63.47.47,0,0,0-.1-.34A.78.78,0,0,0,27.5,30,.47.47,0,0,0,27,29.5a.43.43,0,0,1,.15.34c0,.29-.24.48-.63.48a1,1,0,0,1-.53-.14c0-.25-.15-.39-.34-.49a1.18,1.18,0,0,1-.05.63c-.15.44-.78.53-.78.58s.15.2.25.2a.6.6,0,0,0,.48-.29c-.19.82-.87,2.18-2,2.18s-1.79-1.36-2-2.18a.59.59,0,0,0,.48.29c.1,0,.25-.05.25-.2s-.63-.14-.78-.58a1.18,1.18,0,0,1,0-.63c-.19.1-.39.24-.34.49a1,1,0,0,1-.53.14c-.39,0-.63-.19-.63-.48a.43.43,0,0,1,.15-.34.47.47,0,0,0-.54.48m-.67-4.55c0,.1,0,.15.09.15h9.11c.05,0,.09,0,.09-.15s-.09-.29-.38-.29H19.26c-.29,0-.38.14-.38.29m-1.36,2.23a1.71,1.71,0,0,0,1.79,1.69,1.45,1.45,0,0,0,1.5-1.4,1.18,1.18,0,0,0-.19-.63,5.22,5.22,0,0,0,1.6.24,1,1,0,0,0,.82-.34c-1.84,0-2.57-.48-3.39-.48a.94.94,0,0,0-1,.92.78.78,0,0,0,.78.82c.39,0,.58-.24.58-.48a.23.23,0,0,0-.24-.24c0,.14-.1.24-.29.24a.33.33,0,0,1-.34-.34c0-.24.19-.44.53-.44a.67.67,0,0,1,.73.73c0,.58-.39,1-1.12,1a1.19,1.19,0,0,1-1.21-1.26,1.37,1.37,0,0,1,1.5-1.41c1.12,0,1.84.29,4,.29s2.86-.29,4-.29A1.37,1.37,0,0,1,29,27.66a1.19,1.19,0,0,1-1.21,1.26c-.73,0-1.12-.39-1.12-1a.66.66,0,0,1,.73-.73c.34,0,.53.2.53.44a.33.33,0,0,1-.34.34c-.19,0-.29-.1-.29-.24a.23.23,0,0,0-.24.24c0,.24.19.48.58.48a.78.78,0,0,0,.78-.82.94.94,0,0,0-1-.92c-.82,0-1.55.43-3.39.48a1,1,0,0,0,.82.34,5.22,5.22,0,0,0,1.6-.24,1.18,1.18,0,0,0-.19.63,1.45,1.45,0,0,0,1.5,1.4,1.72,1.72,0,0,0,1.79-1.69,1.79,1.79,0,0,0-2-1.84c-1.17,0-1.94.34-4,.34s-2.8-.34-4-.34a1.79,1.79,0,0,0-2,1.84"/><path class="cls-2" d="M21.35,39.8a6.85,6.85,0,0,0-4,.91H16.7a6.94,6.94,0,0,0-4-.91V34.45a2.19,2.19,0,0,1,.64.16v4.72a6.34,6.34,0,0,1,3.4.72h.58a6.64,6.64,0,0,1,3.43-.72V34.61a2,2,0,0,1,.61-.16V39.8Zm-1.09-5.91v5a7.18,7.18,0,0,0-3,.59V34.61a4.92,4.92,0,0,1,3-.72m-6.44,0a5,5,0,0,1,3,.72v4.91a7.31,7.31,0,0,0-3-.59v-5Zm6.92.25v-.62a7,7,0,0,0-3.72.72,6.91,6.91,0,0,0-3.69-.72v.62A3.79,3.79,0,0,0,12.21,34v6.38a8.49,8.49,0,0,1,4.39.81h.87a8.3,8.3,0,0,1,4.36-.81V34a3.77,3.77,0,0,0-1.09.15"/><path class="cls-2" d="M25.06,55.32c-1.86,0-1.89,1.68-3.64,1.68s-1.89-1.71-3.64-1.71a2.73,2.73,0,0,0-2,.89c.12.14.28.31.4.43a2.13,2.13,0,0,1,1.53-.73c1.5,0,1.78,1.68,3.67,1.68s2-1.68,3.64-1.68,1.74,1.75,3.63,1.68V57c-1.75,0-1.75-1.68-3.63-1.68"/><path class="cls-2" d="M25.06,57.58c-1.86,0-1.89,1.68-3.64,1.68s-1.89-1.71-3.64-1.71a2.86,2.86,0,0,0-.53.06c.17.15.6.54.62.54,1.41,0,1.66,1.67,3.55,1.67s2-1.68,3.64-1.68,1.74,1.75,3.63,1.68v-.56c-1.75,0-1.75-1.68-3.63-1.68"/><path class="cls-2" d="M25.09,59.84c-1.27,0-1.69.79-2.38,1.28a4,4,0,0,0,.55.28c.53-.47.92-1,1.83-1,1.6,0,1.74,1.75,3.63,1.68v-.56c-1.75,0-1.75-1.68-3.63-1.68"/><path class="cls-2" d="M14.62,54.78l.34.41c1.1-.3,1.49-1.48,2.79-1.48,1.5,0,1.78,1.68,3.67,1.68s2-1.68,3.64-1.68,1.74,1.75,3.63,1.68v-.56c-1.75,0-1.75-1.68-3.63-1.68s-1.89,1.68-3.64,1.68-1.89-1.71-3.64-1.71-2,1.28-3.16,1.66"/><path class="cls-2" d="M17.16,53.34h.59V52.09c.05.09.25.14.44.14a1.82,1.82,0,0,0,1.67-1.72l1.53-1.58-.3-.23-1.47,1.43a.65.65,0,0,0-.49-.14,1.39,1.39,0,0,0,.68-1.24l1.58-1.53-.3-.24-1.47,1.43a.65.65,0,0,0-.45-.14,1.61,1.61,0,0,0,.69-1.19l1.53-1.58-.3-.29L19.67,46.7a.55.55,0,0,0-.5-.24,1.44,1.44,0,0,0-.88.33,1,1,0,0,0,.15-.62,1.65,1.65,0,0,0-.74-1.38l-.05-1.72h-.39l-.05,1.72a1.65,1.65,0,0,0-.74,1.38,1.45,1.45,0,0,0,.1.57,1.76,1.76,0,0,0-.88-.28.52.52,0,0,0-.44.19l-1.43-1.44-.3.29L15,47a1.6,1.6,0,0,0,.54,1.19.54.54,0,0,0-.39.15L13.77,47l-.3.24L15,48.75a1.62,1.62,0,0,0,.64,1.19.58.58,0,0,0-.39.14L13.77,48.7l-.3.23L15,50.47a1.88,1.88,0,0,0,1.67,1.76.77.77,0,0,0,.49-.14v1.25Zm.3-3.83a1.31,1.31,0,0,0-.59-.81c.29,0,.54-.05.59-.48.05.43.29.48.59.48a1.24,1.24,0,0,0-.59.81m.68,2.34a.31.31,0,0,1-.34-.34A1.28,1.28,0,0,1,19,50.37c.24,0,.44.05.44.24a1.32,1.32,0,0,1-1.28,1.24m-1.42,0a1.36,1.36,0,0,1-1.28-1.24c0-.19.15-.24.3-.24a1.38,1.38,0,0,1,1.37,1.14c0,.2-.14.34-.39.34m.74-.57a1.3,1.3,0,0,0-.54-.81.47.47,0,0,0,.54-.44c.05.34.24.44.54.44a1.23,1.23,0,0,0-.54.81m.63-1.2c-.24,0-.29-.14-.29-.28A1.24,1.24,0,0,1,19,48.7c.24,0,.34,0,.34.24a1.19,1.19,0,0,1-1.23,1.14m-2.45-1.43a1.5,1.5,0,0,1,1.47,1.15c0,.19-.14.28-.34.28a1.38,1.38,0,0,1-1.38-1.19c0-.19.1-.24.25-.24m3.44-1.76c.19,0,.29.09.29.28a1.35,1.35,0,0,1-1.28,1.2.26.26,0,0,1-.29-.29,1.49,1.49,0,0,1,1.28-1.19m-3.29,0a1.54,1.54,0,0,1,1.32,1.19c0,.19-.14.29-.39.29a1.4,1.4,0,0,1-1.28-1.2c0-.19.1-.28.35-.28m1.67-1.77c.19,0,.59.57.59,1.15s-.35,1.14-.59,1.14-.59-.48-.59-1.14.39-1.15.59-1.15"/><path class="cls-2" d="M35.88,58.18a1,1,0,0,0-1.38.45,1,1,0,0,0-.06.79,1,1,0,0,0,1.15.69l.14,0a1,1,0,0,0,.6-.52,1,1,0,0,0,.06-.78,1,1,0,0,0-.51-.6M36,59.4a.65.65,0,0,1-.38.33.69.69,0,0,1-.51,0,.71.71,0,0,1-.33-.39.67.67,0,0,1,0-.5.64.64,0,0,1,.39-.33.62.62,0,0,1,.5,0,.66.66,0,0,1,.29.89"/><path class="cls-2" d="M41.07,56.52a.92.92,0,0,0-.69-.06.9.9,0,0,0-.57,1.14.87.87,0,0,0,.44.52.92.92,0,0,0,.56.09l.13,0a.85.85,0,0,0,.52-.44.92.92,0,0,0,.06-.69.89.89,0,0,0-.45-.52m.07,1a.58.58,0,0,1-.31.27.53.53,0,0,1-.41,0,.48.48,0,0,1-.26-.31.52.52,0,0,1,.34-.67l.07,0a.54.54,0,0,1,.33.05.53.53,0,0,1,.24.72"/><path class="cls-2" d="M43.55,57.41A1.24,1.24,0,0,0,42.42,57l-.13-.39a1.59,1.59,0,0,0,.68-.93v-.13l-.77-.69-.14,0a1.42,1.42,0,0,0-.83.79l-.39-.09a1.23,1.23,0,0,0-.54-1.11l-.09-.05-.88.29,0,.09A1.2,1.2,0,0,0,39.52,56l-.27.3a1.44,1.44,0,0,0-1.14-.14l-.13,0-.22,1,.09.09a.89.89,0,0,0,.22.16,1.61,1.61,0,0,0-.72.24l-.27-.31a1.17,1.17,0,0,0,.34-1.06l0-.1-.83-.41-.09,0a1.19,1.19,0,0,0-.66.9l-.41,0a1.11,1.11,0,0,0-.49-1l-.08,0-.92.3,0,.08a1.14,1.14,0,0,0,.18,1.09l-.31.27a1.15,1.15,0,0,0-1.06-.33l-.09,0-.42.82,0,.09a1.19,1.19,0,0,0,.9.66l0,.4a1.15,1.15,0,0,0-1,.5l0,.09.29.89.08,0a1.22,1.22,0,0,0,1.09-.19l.28.32a1.14,1.14,0,0,0-.35,1l0,.09.82.41.09,0a1.15,1.15,0,0,0,.69-.89l.39,0a1.31,1.31,0,0,0,.48,1l.1.06.93-.31,0-.1A1.3,1.3,0,0,0,36.8,61l.29-.26a1.14,1.14,0,0,0,1.08.31l.09,0,.42-.82,0-.09a1.14,1.14,0,0,0-.9-.64l0-.43a1.76,1.76,0,0,0,.64-.19.85.85,0,0,0,0,.23v.09l.7.66.12,0a1.41,1.41,0,0,0,.89-.8l.39.08A1.21,1.21,0,0,0,41,60.2l.09,0,.93-.3,0-.1a1.23,1.23,0,0,0-.24-1.2l.26-.3a1.39,1.39,0,0,0,1.19.12l.13,0,.17-.94-.05-.08Zm-4.79.91-.21-.66a2,2,0,0,0,.4,0l.12.4a1.75,1.75,0,0,0-.31.23m-1.19.29h-.2l-.12,1.26.23,0a1.2,1.2,0,0,1,.7.29l-.24.45c-.33,0-.66-.35-.67-.36l-.15-.18-.95.85.15.17a1.19,1.19,0,0,1,.26.71L36.1,62a1.12,1.12,0,0,1-.21-.73l0-.22-1.27-.13v.24s-.05.51-.33.68l-.46-.22a1.17,1.17,0,0,1,.39-.65l.18-.15-.85-1-.17.13a1.3,1.3,0,0,1-.7.28l-.16-.49a1.14,1.14,0,0,1,.73-.18h.22l.12-1.27-.23,0a1.08,1.08,0,0,1-.7-.31l.24-.45c.25,0,.56.27.66.37l.15.18,1-.86-.15-.18a1,1,0,0,1-.28-.67l.52-.17a1.08,1.08,0,0,1,.17.71l0,.23,1.29.12,0-.22a1.1,1.1,0,0,1,.31-.7l.46.23a1.17,1.17,0,0,1-.39.66l-.17.16.84.94.17-.13a1.19,1.19,0,0,1,.72-.25l.14.42a1.37,1.37,0,0,1-.74.22M43,58.07a.91.91,0,0,1-.79-.19l-.17-.17-.85.95.16.15s.4.39.32.77l-.52.17a1,1,0,0,1-.2-.81l0-.22-1-.21-.23,0,0,.22a.89.89,0,0,1-.52.62L38.87,59c.05-.28.42-.51.57-.59l.17-.08-.33-1.13-.2,0a1.43,1.43,0,0,1-.82-.13l.1-.48a.91.91,0,0,1,.76.19l.18.18.82-.95L40,55.88a1.08,1.08,0,0,1-.3-.78l.48-.16a1,1,0,0,1,.22.81l0,.21,1,.22.24,0,0-.24a.88.88,0,0,1,.5-.61l.36.33a1.37,1.37,0,0,1-.58.59l-.17.1.39,1.1.19,0a1.17,1.17,0,0,1,.81.14l-.09.47Z"/><path class="cls-2" d="M47.42,48.1l-3.54,2.68V48.39l-3.76,2.39V49l-3.68,2.24V52L39.65,50v1.7l3.76-2.39v2.39l4.77-3.51-.43-.54h1.48v1.7l-.58-.62-5.93,4.63V50.92l-3.61,2.32V51.72l-3.33,2.1v.68l2.86-1.84v1.52l3.62-2.32v2.57l6.39-5.06,1.09,1.16V47.2h-3l.72.9ZM42,44.6v1.91l3.47-2v2l3.18-2.2-.4-.54h1.48v1.59l-.61-.62-4.27,3.15V45.75l-3.83,2.39V46.48l-3.54,2.06v.68l3.07-1.8v1.7l3.8-2.39v2.13l4.77-3.5,1.08,1.15V43.3h-3l.69.86-2,1.41v-2l-3.47,2V43.66l-4,2.17v.68L42,44.6Z"/><polygon class="cls-2" points="30.41 7.36 30.41 8.51 29.12 8.51 29.12 9.22 30.41 9.22 30.41 11.5 31.12 11.5 31.12 9.22 32.41 9.22 32.41 8.51 31.12 8.51 31.12 7.36 30.41 7.36 30.41 7.36"/><path class="cls-1" d="M30.76,35.56a16.09,16.09,0,0,0,6.5.52v6.2c0,5.51-2.74,9.44-6.5,10.27-3.76-.83-6.49-4.76-6.49-10.27v-6.2a16,16,0,0,0,6.49-.52"/><path class="cls-2" d="M34.89,11.69l-.15.61a30.22,30.22,0,0,1-3.91,60.18A30.22,30.22,0,0,1,26.91,12.3l-.15-.61a30.84,30.84,0,1,0,8.13,0"/><path class="cls-2" d="M41,11.39l-5.79-.63-.08.48L40.4,12l.61-.64m-5.79-1.18,6.17.47a7.63,7.63,0,0,1,.54-.63l-.54-.4-6.17.08v.48Zm-.08-1.27.08.4,5.56-.56s-.45-.63-.61-.79l-5,.95Zm-.23-.87.15.48L39.64,7.2l-.38-.79L34.91,8.07Zm-.46-.79.23.4,4.2-2.3a5.82,5.82,0,0,1-.16-1L34.45,7.28Zm-.61-.71.38.39L38.5,3.4V2.45h-.84L33.84,6.57ZM33.08,6l.38.24,2.9-4-1.07-.07L33.08,6Zm-.69-.47.38.24,1.61-3.72-.84-.32-1.15,3.8Zm-.91-.16.45.08.92-4.11L32.32,1l-.84,4.43Zm-10.76,6,.61.64,5.26-.79-.07-.48-5.8.63Zm5.8-1.18V9.73l-6.18-.08-.53.4a6.38,6.38,0,0,1,.53.63l6.18-.47Zm.07-1.27-5-.95c-.15.16-.61.79-.61.79l5.57.56.07-.4Zm.23-.87L22.48,6.41l-.39.79,4.58,1.35.15-.48Zm.46-.79L23,4.43a6.86,6.86,0,0,1-.15,1l4.19,2.3.23-.4Zm.61-.71L24.08,2.45h-.84V3.4L27.51,7l.38-.39ZM28.65,6,26.44,2.22l-1.07.07,2.9,4L28.65,6Zm.69-.47L28.2,1.74l-.84.32L29,5.78l.38-.24Zm.92-.16L29.42,1s-.46.32-.54.4l.92,4.11.46-.08Zm.84-.08L31.48.4a1.58,1.58,0,0,1-.61-.4,1.67,1.67,0,0,1-.61.4l.38,4.9Z"/><path class="cls-2" d="M30.25,47.48a.8.8,0,0,0,1.16,0v-6h3.12V40.21H31.41V37.42H30.25v2.79H27.13v1.23h3.12v6Zm1.65.37a3.15,3.15,0,0,1-1.07.46,3.07,3.07,0,0,1-1.07-.46V41.93H26.59V39.75h3.17V36.89H31.9v2.86h3.17v2.18H31.9v5.92Z"/><polygon class="cls-2" points="30.71 50.58 30.71 50.85 29.69 50.85 29.69 49.57 30.68 49.57 30.68 49.83 29.98 49.83 29.98 50.1 30.58 50.1 30.58 50.34 29.98 50.34 29.98 50.58 30.71 50.58 30.71 50.58"/><polygon class="cls-2" points="32.05 49.85 31.62 49.85 31.62 50.85 31.33 50.85 31.33 49.85 30.91 49.85 30.91 49.57 32.05 49.57 32.05 49.85 32.05 49.85"/><polygon class="cls-2" points="33.88 49.37 34.08 49.57 33.39 50.23 32.5 49.3 32.71 49.1 33.41 49.83 33.88 49.37 33.88 49.37"/><path class="cls-2" d="M35,48.4l-.35-.08-.35.5.19.3-.17.25c-.48-.76-.72-1.21-.72-1.21l.2-.28s.5.08,1.37.27L35,48.4Zm-.61-.14-.48-.09s.08.15.25.42l.23-.33Z"/><path class="cls-2" d="M35.42,46.64c.23.11.27.3.15.58l-.3.65-1.17-.52.26-.59c.12-.27.3-.33.49-.24a.25.25,0,0,1,.16.23.3.3,0,0,1,.41-.11m-1,.55.25.11.14-.3c.05-.1,0-.17,0-.2s-.15,0-.21.1l-.13.29Zm.88-.06c0-.12,0-.19,0-.23s-.16,0-.21.12l-.17.38.25.11.17-.38Z"/><path class="cls-2" d="M34.77,45.49a.65.65,0,1,1,1.27.29.62.62,0,0,1-.79.53.61.61,0,0,1-.48-.82m1,.23a.39.39,0,1,0-.47.31.36.36,0,0,0,.47-.31"/><path class="cls-2" d="M36.28,43.89a3.52,3.52,0,0,0-.39.18v0l0,.32.38,0,0,.28L35,44.65l0-.6c0-.33.19-.51.48-.49a.4.4,0,0,1,.38.24l.46-.23,0,.32Zm-.68.52,0-.31c0-.17,0-.25-.17-.25s-.19.06-.2.23l0,.31.37,0Z"/><polygon class="cls-2" points="26.58 44.33 26.29 44.36 26.35 44.97 26.11 44.99 26.05 44.38 25.57 44.42 25.54 44.13 26.82 44.02 26.91 45.03 26.64 45.05 26.58 44.33 26.58 44.33"/><polygon class="cls-2" points="27.03 45.56 25.78 45.82 25.71 45.54 26.97 45.27 27.03 45.56 27.03 45.56"/><path class="cls-2" d="M27.3,46.44c.17.46,0,.75-.35.9s-.68,0-.86-.45l-.18-.49,1.2-.45.19.49Zm-.93.37c.09.25.25.34.48.25s.28-.25.19-.5l-.1-.24-.66.25.09.24Z"/><polygon class="cls-2" points="27.41 48.83 27.18 48.97 26.64 48.1 27.72 47.42 28.25 48.25 28.03 48.4 27.66 47.81 27.42 47.95 27.74 48.46 27.55 48.59 27.23 48.08 27.02 48.21 27.41 48.83 27.41 48.83"/><path class="cls-2" d="M28.55,49.31a.14.14,0,0,0,.09,0c.06-.06.08-.14-.05-.29s-.22-.16-.3-.09.51.65.15,1c-.18.16-.4.12-.65-.16s-.27-.53-.09-.69a1.29,1.29,0,0,1,.22.17c-.11.1-.09.21,0,.37s.21.16.28.1-.52-.64-.14-1c.17-.16.39-.13.65.16s.24.5.11.61a.27.27,0,0,1-.13.08l-.19-.21Z"/><path class="cls-2" d="M69.86,25.16a1.92,1.92,0,0,1-.6-.07v-.18h.19a1,1,0,0,0,.65-.19,1.44,1.44,0,0,0,.44-1.2c0-1.3-.76-1.34-1.22-1.34a3.75,3.75,0,0,0-.38,0v4c0,.71,0,1,.13,1.17s.32.25.7.27v.16c-.35,0-1.14,0-1.45,0s-.83,0-1.22,0v-.16a.64.64,0,0,0,.45-.2c.15-.17.16-.42.16-1.2V23.12c0-.57,0-.77-.12-.9a.59.59,0,0,0-.46-.23v-.16c.35,0,.77,0,1.09,0h1.36a5.38,5.38,0,0,1,1,.09,1.45,1.45,0,0,1,1.27,1.5c0,1.2-.92,1.73-2,1.73Z"/><path class="cls-2" d="M75.61,27.87a2.74,2.74,0,0,1-3-3,2.91,2.91,0,0,1,3.07-3.13,2.74,2.74,0,0,1,3,3,2.91,2.91,0,0,1-3.07,3.13Zm0-5.69c-1.22,0-1.67,1.17-1.67,2.61s.52,2.68,1.67,2.68,1.67-1.18,1.67-2.61-.52-2.68-1.67-2.68Z"/><path class="cls-2" d="M85.18,22.19c-.15.17-.16.42-.16,1.2v4.43h-.51l-3.44-4.57a2.21,2.21,0,0,1-.22-.35v3.6c0,.57,0,.77.12.9a.61.61,0,0,0,.46.23v.16c-.35,0-.53,0-.85,0s-.51,0-.9,0v-.16a.64.64,0,0,0,.44-.2c.15-.17.16-.42.16-1.2V23.12c0-.57,0-.77-.11-.9A.63.63,0,0,0,79.7,22v-.16l1,0c.14,0,.54,0,.79,0l2.62,3.49a2.46,2.46,0,0,1,.29.44V23.12c0-.57,0-.77-.12-.9a.59.59,0,0,0-.46-.23v-.16c.35,0,.57,0,.89,0s.48,0,.86,0V22a.64.64,0,0,0-.44.2Z"/><path class="cls-2" d="M90.68,23a.69.69,0,0,0-.31-.61,1.67,1.67,0,0,0-.94-.14H89.1v4.22c0,.57,0,.77.11.9s.55.23.64.23v.17c-.35,0-1.07,0-1.39,0s-1,0-1.4,0v-.16a1,1,0,0,0,.63-.22c.15-.17.16-.4.16-1.18v-4h-.34a1.67,1.67,0,0,0-.94.14.69.69,0,0,0-.3.61h-.19c0-.42,0-1.17,0-1.17h4.74s0,.75,0,1.17Z"/><path class="cls-2" d="M93.42,22.19c-.15.17-.16.42-.16,1.2V26.5c0,.57,0,.77.12.9a.61.61,0,0,0,.46.23v.16c-.35,0-.9,0-1.22,0s-.86,0-1.21,0v-.16a.61.61,0,0,0,.44-.2c.16-.17.16-.42.16-1.2V23.12c0-.57,0-.77-.11-.9a.63.63,0,0,0-.46-.23v-.16c.35,0,.9,0,1.22,0s.85,0,1.21,0V22a.64.64,0,0,0-.45.2Z"/><path class="cls-2" d="M98.7,23a.69.69,0,0,0-.3-.61,1.67,1.67,0,0,0-.94-.14h-.75v2.21h.76a1.14,1.14,0,0,0,.74-.15.73.73,0,0,0,.23-.53h.19c0,.2,0,.32,0,.89s0,.67,0,.88h-.19a.7.7,0,0,0-.2-.49,1.2,1.2,0,0,0-.78-.18h-.75v1.61c0,.57,0,.75.12.88s.55.23.64.23v.17l-1.38,0c-.51,0-.72,0-1.23,0v-.16a.61.61,0,0,0,.44-.2c.16-.17.17-.42.17-1.2V23.12c0-.57,0-.77-.12-.9a.61.61,0,0,0-.46-.23v-.16c.5,0,.88,0,1.39,0h2.59s0,.75,0,1.17Z"/><path class="cls-2" d="M101.72,22.19c-.15.17-.16.42-.16,1.2V26.5c0,.57,0,.77.12.9a.59.59,0,0,0,.46.23v.16c-.36,0-.91,0-1.22,0s-.86,0-1.21,0v-.16a.64.64,0,0,0,.44-.2c.15-.17.16-.42.16-1.2V23.12c0-.57,0-.77-.12-.9a.59.59,0,0,0-.46-.23v-.16c.36,0,.91,0,1.22,0s.86,0,1.21,0V22a.64.64,0,0,0-.44.2Z"/><path class="cls-2" d="M107.8,23a.65.65,0,0,0-.24-.52,1.63,1.63,0,0,0-1-.29c-.8,0-2,.17-2,2.63,0,1.51.52,2.56,2,2.56a1.29,1.29,0,0,0,1-.34.78.78,0,0,0,.19-.55h.19c0,.26,0,.54,0,1v.15a5.32,5.32,0,0,1-1.52.2,3.3,3.3,0,0,1-2.65-1,2.93,2.93,0,0,1-.57-1.86,3,3,0,0,1,2-3,4.55,4.55,0,0,1,1.38-.2,13.84,13.84,0,0,1,1.41.1c0,.17,0,.38,0,.56s0,.46,0,.58Z"/><path class="cls-2" d="M111,22.19c-.15.17-.16.42-.16,1.2V26.5c0,.57,0,.77.12.9a.61.61,0,0,0,.46.23v.16c-.35,0-.9,0-1.22,0s-.86,0-1.21,0v-.16a.61.61,0,0,0,.44-.2c.15-.17.16-.42.16-1.2V23.12c0-.57,0-.77-.11-.9A.63.63,0,0,0,109,22v-.16c.35,0,.9,0,1.22,0s.85,0,1.21,0V22a.64.64,0,0,0-.45.2Z"/><path class="cls-2" d="M116.58,27.76c-.27,0-.94,0-1.2,0v-.16a.64.64,0,0,0,.42-.11.23.23,0,0,0,.08-.2,1.68,1.68,0,0,0-.13-.51l-.43-1.25h-1.7l-.46,1.26a1.71,1.71,0,0,0-.14.51.24.24,0,0,0,.07.19.68.68,0,0,0,.42.11v.16c-.32,0-.54,0-.86,0s-.55,0-.84,0v-.16a.5.5,0,0,0,.44-.26,9.55,9.55,0,0,0,.44-1l1.88-4.55.66-.12,1.63,4.59c.23.63.39,1,.43,1.08a.46.46,0,0,0,.42.25v.16c-.26,0-.87,0-1.13,0ZM114.76,24a5.7,5.7,0,0,1-.24-.81l-.75,2h1.41L114.76,24Z"/><path class="cls-2" d="M72.56,32.65c-.15.18-.16.43-.16,1.21v1.83a4.42,4.42,0,0,1-.15,1.47,2.23,2.23,0,0,1-2.32,1.16c-1.52,0-2-.54-2.27-1.14a4.33,4.33,0,0,1-.16-1.52V33.59c0-.57,0-.77-.12-.91a.56.56,0,0,0-.46-.22v-.17c.36,0,.91,0,1.22,0s.86,0,1.22,0v.17a.63.63,0,0,0-.45.19c-.15.18-.16.43-.16,1.21v2.4c0,.81.06,1.66,1.38,1.66s1.39-1,1.39-1.67V33.59c0-.57,0-.77-.11-.91a.59.59,0,0,0-.46-.22v-.17c.35,0,.66,0,1,0s.73,0,1.09,0v.17a.63.63,0,0,0-.45.19Z"/><path class="cls-2" d="M79.33,32.65c-.15.18-.16.43-.16,1.21v4.42h-.51l-3.44-4.57a2.49,2.49,0,0,1-.22-.34V37c0,.56,0,.76.12.9a.61.61,0,0,0,.46.23v.16c-.35,0-.53,0-.85,0a7.4,7.4,0,0,0-.9,0V38.1a.61.61,0,0,0,.44-.2c.16-.17.16-.43.16-1.21v-3.1c0-.57,0-.77-.11-.91a.58.58,0,0,0-.46-.22v-.17c.35,0,.73,0,1,0l.79,0,2.62,3.49a2.67,2.67,0,0,1,.29.45V33.59c0-.57,0-.77-.12-.91a.56.56,0,0,0-.46-.22v-.17c.36,0,.57,0,.89,0a6.86,6.86,0,0,0,.87,0v.17a.63.63,0,0,0-.45.19Z"/><path class="cls-2" d="M82.65,32.65c-.15.18-.16.43-.16,1.21V37c0,.56,0,.76.12.9a.59.59,0,0,0,.46.23v.16c-.36,0-.91,0-1.22,0s-.86,0-1.21,0V38.1a.64.64,0,0,0,.44-.2c.15-.17.16-.43.16-1.21v-3.1c0-.57,0-.77-.12-.91a.56.56,0,0,0-.46-.22v-.17c.35,0,.91,0,1.22,0s.86,0,1.21,0v.17a.62.62,0,0,0-.44.19Z"/><path class="cls-2" d="M89.11,32.72c-.07.11-.2.42-.44,1L86.8,38.26l-.69.12-1.62-4.6c-.23-.62-.39-1-.43-1.07a.46.46,0,0,0-.42-.25v-.17c.26,0,.86,0,1.13,0s.94,0,1.21,0v.17a.69.69,0,0,0-.43.1.28.28,0,0,0-.08.2,1.83,1.83,0,0,0,.14.52l1,2.84c.19.55.25.81.25.81s.1-.3.3-.83l1-2.83a1.86,1.86,0,0,0,.15-.52.22.22,0,0,0-.08-.19.6.6,0,0,0-.41-.1v-.17c.31,0,.54,0,.87,0a8,8,0,0,0,.84,0v.17a.52.52,0,0,0-.45.26Z"/><path class="cls-2" d="M93.9,38.24H91.37c-.5,0-1,0-1.5,0V38.1a.64.64,0,0,0,.45-.2c.15-.17.16-.43.16-1.21v-3.1c0-.57,0-.77-.12-.91a.58.58,0,0,0-.46-.22v-.17c.5,0,.89,0,1.39,0h2.59s0,.75,0,1.17h-.19a.71.71,0,0,0-.3-.62c-.2-.12-.38-.13-.94-.13h-.74V35h.75a1.2,1.2,0,0,0,.74-.15.74.74,0,0,0,.23-.54h.19c0,.2,0,.33,0,.9s0,.67,0,.87h-.19a.69.69,0,0,0-.2-.48,1.14,1.14,0,0,0-.78-.18h-.74v2c0,.41.07.47.56.47h.15c.5,0,.86,0,1.08-.25a.9.9,0,0,0,.22-.6h.19c0,.41,0,1.26,0,1.26Z"/><path class="cls-2" d="M100.05,38.28a1.54,1.54,0,0,1-1.48-.76c-.2-.26-.88-1.13-1.32-1.78h-.38V37c0,.56,0,.76.12.9a.59.59,0,0,0,.46.23v.16c-.36,0-.87,0-1.19,0s-.85,0-1.2,0V38.1a.61.61,0,0,0,.44-.2c.16-.17.17-.43.17-1.21v-3.1c0-.57,0-.77-.12-.91a.58.58,0,0,0-.46-.22v-.17l1,0c.65,0,.81,0,1.39,0a4.65,4.65,0,0,1,1,.09,1.43,1.43,0,0,1,1.2,1.44,1.63,1.63,0,0,1-1.32,1.65l1.54,1.77c.44.49.75.84,1.13.86v.15a8.9,8.9,0,0,1-1,0Zm-2.79-5.63-.39,0v2.68l.42,0a1.32,1.32,0,0,0,.36,0c.12,0,.72-.14.72-1.37s-.76-1.31-1.11-1.31Z"/><path class="cls-2" d="M102.94,38.29a5.07,5.07,0,0,1-1.43-.19V38c0-.43,0-.72,0-1h.19a.92.92,0,0,0,.31.65,1.47,1.47,0,0,0,.92.24c1.16,0,1.18-.77,1.18-.95,0-.59-.38-.8-.88-1.11l-.5-.32a1.79,1.79,0,0,1-1.08-1.66c0-.45.22-1.58,2.1-1.58a9,9,0,0,1,1.39.1,3.65,3.65,0,0,0,0,.49,6.13,6.13,0,0,0,0,.65h-.19a.87.87,0,0,0-.24-.54,1.37,1.37,0,0,0-.92-.29c-.93,0-1,.54-1,.84,0,.47.27.7.76,1l.57.34c.74.44,1.18.82,1.18,1.74,0,1.21-1,1.72-2.28,1.72Z"/><path class="cls-2" d="M108.32,32.65c-.15.18-.16.43-.16,1.21V37c0,.56,0,.76.11.9a.63.63,0,0,0,.47.23v.16c-.36,0-.91,0-1.23,0s-.85,0-1.21,0V38.1a.64.64,0,0,0,.45-.2c.15-.17.16-.43.16-1.21v-3.1c0-.57,0-.77-.12-.91a.56.56,0,0,0-.46-.22v-.17c.35,0,.9,0,1.22,0s.86,0,1.21,0v.17a.61.61,0,0,0-.44.19Z"/><path class="cls-2" d="M113.48,38.11a5.78,5.78,0,0,1-1.47.15c-.46,0-.8,0-1.21,0l-1,0V38.1a.64.64,0,0,0,.44-.2c.15-.17.16-.43.16-1.21v-3.1c0-.57,0-.77-.12-.91a.56.56,0,0,0-.46-.22v-.17s.35,0,1,0l1.48,0c.81,0,3.31.07,3.31,2.81a2.76,2.76,0,0,1-2.1,3Zm-1.23-5.39a6.24,6.24,0,0,0-.64,0v4.62c0,.27,0,.4.22.46a2.38,2.38,0,0,0,.43,0c1.37,0,2-.72,2-2.6,0-2.3-1.19-2.52-2-2.52Z"/><path class="cls-2" d="M120.62,38.22c-.27,0-.94,0-1.2,0V38.1a.64.64,0,0,0,.42-.11.24.24,0,0,0,.08-.2,1.79,1.79,0,0,0-.13-.52L119.36,36h-1.7l-.46,1.25a1.75,1.75,0,0,0-.14.52.25.25,0,0,0,.07.19.68.68,0,0,0,.42.11v.16c-.32,0-.54,0-.86,0a7.87,7.87,0,0,0-.84,0V38.1a.51.51,0,0,0,.44-.27,8,8,0,0,0,.44-1l1.88-4.56.66-.11,1.63,4.59c.23.62.39,1,.43,1.07a.49.49,0,0,0,.42.26v.16c-.26,0-.87,0-1.13,0Zm-1.82-3.8a7.91,7.91,0,0,1-.24-.82l-.75,2h1.41l-.42-1.21Z"/><path class="cls-2" d="M126.06,38.11a5.78,5.78,0,0,1-1.47.15c-.46,0-.8,0-1.2,0l-1,0V38.1a.61.61,0,0,0,.44-.2c.15-.17.16-.43.16-1.21v-3.1c0-.57,0-.77-.11-.91a.6.6,0,0,0-.47-.22v-.17s.35,0,1,0l1.48,0c.81,0,3.31.07,3.31,2.81a2.76,2.76,0,0,1-2.1,3Zm-1.23-5.39a6.24,6.24,0,0,0-.64,0v4.62c0,.27,0,.4.22.46a2.38,2.38,0,0,0,.43,0c1.38,0,2-.72,2-2.6,0-2.3-1.19-2.52-2-2.52Z"/><path class="cls-2" d="M73.82,44.33a.93.93,0,0,0-.35-.75A2.38,2.38,0,0,0,72,43.17c-1.13,0-2.86.25-2.86,3.74,0,2.15.73,3.64,2.9,3.64a1.83,1.83,0,0,0,1.42-.48,1.1,1.1,0,0,0,.27-.78H74c0,.37-.05.77-.05,1.37v.22a8,8,0,0,1-2.17.28A4.63,4.63,0,0,1,68,49.71a4.11,4.11,0,0,1-.81-2.65,4.24,4.24,0,0,1,2.9-4.21,6.4,6.4,0,0,1,1.95-.28c1,0,1.9.14,2,.14a7,7,0,0,0,0,.8c0,.33,0,.65,0,.82Z"/><path class="cls-2" d="M81.39,51.06c-.39,0-1.34,0-1.71,0v-.23a.91.91,0,0,0,.6-.15.37.37,0,0,0,.12-.29,2.6,2.6,0,0,0-.2-.73l-.61-1.77h-2.4l-.66,1.78a2.48,2.48,0,0,0-.2.74.33.33,0,0,0,.1.27.93.93,0,0,0,.59.15v.23c-.45,0-.76,0-1.22,0s-.78,0-1.2,0v-.23a.73.73,0,0,0,.63-.37,12.15,12.15,0,0,0,.63-1.4l2.67-6.48.94-.16L81.78,49c.32.89.56,1.44.61,1.53a.65.65,0,0,0,.6.36v.23c-.37,0-1.23,0-1.6,0ZM78.8,45.65a8.81,8.81,0,0,1-.34-1.15l-1.07,2.87h2l-.59-1.72Z"/><path class="cls-2" d="M89.53,44.33a1,1,0,0,0-.44-.87,2.35,2.35,0,0,0-1.33-.2h-.48v6c0,.81,0,1.09.17,1.27s.78.34.91.34v.24c-.5,0-1.53,0-2,0s-1.49,0-2,0v-.23a1.43,1.43,0,0,0,.89-.31c.22-.24.23-.58.23-1.68V43.26H85a2.35,2.35,0,0,0-1.33.2,1,1,0,0,0-.44.87H83c.05-.59,0-1.66,0-1.66h6.73s0,1.07,0,1.66Z"/><path class="cls-2" d="M94.79,51.21A3.88,3.88,0,0,1,90.57,47a4.13,4.13,0,0,1,4.37-4.44,3.89,3.89,0,0,1,4.22,4.2,4.13,4.13,0,0,1-4.37,4.44Zm.08-8.08c-1.74,0-2.37,1.67-2.37,3.72s.73,3.8,2.36,3.8,2.38-1.67,2.38-3.71-.74-3.81-2.37-3.81ZM96.62,41l-2.78,1-.15-.23L95.49,40l.09,0,1.1.85-.06.19Z"/><path class="cls-2" d="M106.23,51.08h-3.52c-.72,0-1.42,0-2.14,0v-.23a.85.85,0,0,0,.63-.28c.22-.25.24-.61.24-1.71V44.47c0-.81,0-1.09-.17-1.28a.85.85,0,0,0-.66-.33v-.23c.5,0,1.43.06,1.88.06s1.4,0,1.9-.06v.25a1.17,1.17,0,0,0-1,.38c-.2.26-.18.66-.18,1.66v4.92c0,.58.1.65.79.65h.22c.71,0,1.15,0,1.47-.34a1.33,1.33,0,0,0,.3-.86h.27c-.05.59,0,1.79,0,1.79Z"/><path class="cls-2" d="M110.41,43.15c-.22.24-.23.6-.23,1.7v4.42c0,.81,0,1.1.17,1.29a.87.87,0,0,0,.65.32v.23c-.5,0-1.28,0-1.73,0s-1.22,0-1.72,0v-.23a.85.85,0,0,0,.63-.28c.22-.25.23-.61.23-1.71V44.47c0-.81,0-1.09-.17-1.28a.84.84,0,0,0-.65-.33v-.23c.5,0,1.28.06,1.73.06s1.22,0,1.72-.06v.23a.89.89,0,0,0-.63.29Z"/><path class="cls-2" d="M119.06,44.33a.93.93,0,0,0-.35-.75,2.42,2.42,0,0,0-1.46-.41c-1.13,0-2.87.25-2.87,3.74,0,2.15.73,3.64,2.9,3.64a1.86,1.86,0,0,0,1.43-.48,1.1,1.1,0,0,0,.27-.78h.27c0,.37,0,.77,0,1.37v.22a8,8,0,0,1-2.17.28,4.67,4.67,0,0,1-3.77-1.45,4.16,4.16,0,0,1-.8-2.65,4.23,4.23,0,0,1,2.9-4.21,6.32,6.32,0,0,1,2-.28c1,0,1.9.14,2,.14a7,7,0,0,0,0,.8c0,.33,0,.65,0,.82Z"/><path class="cls-2" d="M126.62,51.06c-.38,0-1.33,0-1.71,0v-.23a1,1,0,0,0,.61-.15.4.4,0,0,0,.11-.29,2.47,2.47,0,0,0-.19-.73l-.62-1.77h-2.4l-.65,1.78a2.59,2.59,0,0,0-.21.74.36.36,0,0,0,.1.27,1,1,0,0,0,.6.15v.23c-.45,0-.76,0-1.23,0a11.84,11.84,0,0,0-1.19,0v-.23a.75.75,0,0,0,.63-.37,14.39,14.39,0,0,0,.63-1.4l2.67-6.48.94-.16L127,49c.32.89.55,1.44.6,1.53a.69.69,0,0,0,.61.36v.23c-.38,0-1.24,0-1.61,0ZM124,45.65a10.76,10.76,0,0,1-.35-1.15l-1.06,2.87h2L124,45.65Z"/><path class="cls-2" d="M135.54,51a5.94,5.94,0,0,1-1.48.14l-1.2,0c-.32,0-.69,0-1.05,0v-.16a.6.6,0,0,0,.45-.2c.15-.17.16-.42.16-1.2V46.43c0-.57,0-.77-.12-.9a.61.61,0,0,0-.46-.23v-.16s.34,0,1,0h1.49c.81,0,3.3.07,3.3,2.81a2.77,2.77,0,0,1-2.09,3Zm-1.23-5.4a4.18,4.18,0,0,0-.64,0v4.62c0,.26,0,.39.21.45a1.68,1.68,0,0,0,.44,0c1.37,0,2-.73,2-2.61,0-2.29-1.2-2.52-2-2.52Z"/><path class="cls-2" d="M142.66,51.08h-2.53c-.51,0-1,0-1.5,0v-.16a.57.57,0,0,0,.44-.2c.15-.17.16-.42.16-1.2V46.43c0-.57,0-.77-.11-.9a.63.63,0,0,0-.47-.23v-.16c.5,0,.89,0,1.4,0h2.58s0,.75,0,1.17h-.19a.69.69,0,0,0-.31-.61,1.67,1.67,0,0,0-.94-.14h-.74v2.21h.76a1.09,1.09,0,0,0,.73-.15.7.7,0,0,0,.24-.53h.19c0,.2,0,.32,0,.89s0,.67,0,.88h-.19a.7.7,0,0,0-.2-.49,1.21,1.21,0,0,0-.79-.18h-.74v2c0,.4.07.46.56.46h.15c.5,0,.86,0,1.09-.25a.88.88,0,0,0,.22-.6h.19c0,.42,0,1.26,0,1.26Z"/><path class="cls-2" d="M74.3,56.14a13.55,13.55,0,0,0-.62,1.39L71,64l-1,.17-2.29-6.48c-.32-.88-.55-1.42-.6-1.51a.67.67,0,0,0-.6-.36v-.23c.37,0,1.22.05,1.59.05s1.34,0,1.71-.05v.23a.91.91,0,0,0-.6.15.39.39,0,0,0-.11.28,2.47,2.47,0,0,0,.19.73l1.39,4a11.36,11.36,0,0,1,.35,1.15s.14-.42.43-1.17l1.47-4a2.64,2.64,0,0,0,.21-.73.36.36,0,0,0-.1-.27.93.93,0,0,0-.59-.15v-.23c.45,0,.76.05,1.22.05a11.84,11.84,0,0,0,1.19-.05v.23a.73.73,0,0,0-.63.37Z"/><path class="cls-2" d="M80.83,63.9c-.38,0-1.32,0-1.69.05v-.23a1,1,0,0,0,.6-.15.36.36,0,0,0,.11-.28,2.47,2.47,0,0,0-.19-.73l-.61-1.75H76.66L76,62.58a2.75,2.75,0,0,0-.2.72.3.3,0,0,0,.1.27.93.93,0,0,0,.59.15V64c-.45,0-.75-.05-1.21-.05s-.78,0-1.19.05v-.23a.71.71,0,0,0,.63-.37A12.91,12.91,0,0,0,75.35,62L78,55.54l.93-.17,2.3,6.48c.32.88.55,1.43.6,1.52a.65.65,0,0,0,.6.35V64c-.37,0-1.23-.05-1.6-.05Zm-2.56-5.37a8.52,8.52,0,0,1-.34-1.14l-1.06,2.85h2l-.59-1.71Z"/><path class="cls-2" d="M88.86,63.93H85.37c-.71,0-1.4,0-2.12,0v-.23a.85.85,0,0,0,.63-.28c.22-.24.23-.59.23-1.69V57.36c0-.8,0-1.08-.17-1.27a.82.82,0,0,0-.65-.32v-.23c.5,0,1.42.05,1.86.05s1.39,0,1.89-.05v.24c-.53,0-.82.14-1,.38s-.18.65-.18,1.65v4.88c0,.58.1.65.79.65h.21c.71,0,1.14,0,1.46-.34a1.31,1.31,0,0,0,.3-.86h.27c-.05.59,0,1.79,0,1.79Z"/><path class="cls-2" d="M94.07,60.24a2.71,2.71,0,0,1-.85-.1v-.25h.27a1.49,1.49,0,0,0,.91-.27A2,2,0,0,0,95,57.94c0-1.84-1.07-1.89-1.72-1.89-.22,0-.54,0-.54,0V61.7c0,1,0,1.39.18,1.64a1.17,1.17,0,0,0,1,.38V64c-.5,0-1.61-.05-2-.05s-1.16,0-1.71.05v-.23a.84.84,0,0,0,.62-.28c.22-.24.23-.59.23-1.69V57.36c0-.8,0-1.08-.16-1.27a.86.86,0,0,0-.65-.32v-.23c.49,0,1.08,0,1.52,0,.72,0,1.15,0,1.93,0a7.88,7.88,0,0,1,1.44.13A2.05,2.05,0,0,1,96.9,57.8c0,1.69-1.3,2.44-2.83,2.44Z"/><path class="cls-2" d="M103.31,63.9c-.38,0-1.33,0-1.7.05v-.23a.91.91,0,0,0,.6-.15.34.34,0,0,0,.12-.28,2.85,2.85,0,0,0-.19-.73l-.62-1.75H99.14l-.65,1.77a2.4,2.4,0,0,0-.2.72.3.3,0,0,0,.1.27.92.92,0,0,0,.58.15V64c-.44,0-.75-.05-1.21-.05s-.78,0-1.18.05v-.23a.69.69,0,0,0,.62-.37A14.34,14.34,0,0,0,97.83,62l2.65-6.43.93-.17,2.29,6.48c.32.88.55,1.43.6,1.52a.68.68,0,0,0,.6.35V64c-.37,0-1.22-.05-1.59-.05Zm-2.56-5.37a10.34,10.34,0,0,1-.35-1.14l-1.06,2.85h2l-.58-1.71Z"/><path class="cls-2" d="M112.77,64a2.17,2.17,0,0,1-2.09-1.08c-.28-.36-1.24-1.59-1.86-2.51h-.54v1.73c0,.8,0,1.08.17,1.28a.82.82,0,0,0,.65.31V64c-.5,0-1.23-.05-1.67-.05s-1.2,0-1.7.05v-.23a.86.86,0,0,0,.63-.28c.21-.24.22-.59.22-1.69V57.36c0-.8,0-1.08-.16-1.27a.84.84,0,0,0-.65-.32v-.23c.5,0,.93,0,1.38,0,.91,0,1.13,0,1.95,0a6.36,6.36,0,0,1,1.45.13,2,2,0,0,1,1.7,2A2.28,2.28,0,0,1,110.38,60l2.17,2.5c.63.7,1.06,1.19,1.59,1.21v.22a10.37,10.37,0,0,1-1.37.05Zm-3.94-8a4.49,4.49,0,0,0-.55,0v3.77s.29,0,.6,0a1.93,1.93,0,0,0,.5,0c.18,0,1-.2,1-1.93S109.33,56,108.83,56Z"/><path class="cls-2" d="M121.22,63.9c-.38,0-1.33,0-1.7.05v-.23a.91.91,0,0,0,.6-.15.34.34,0,0,0,.12-.28,2.47,2.47,0,0,0-.19-.73l-.61-1.75h-2.39l-.65,1.77a2.4,2.4,0,0,0-.2.72.3.3,0,0,0,.1.27.93.93,0,0,0,.59.15V64c-.45,0-.76-.05-1.22-.05s-.77,0-1.18.05v-.23a.68.68,0,0,0,.62-.37,10.4,10.4,0,0,0,.63-1.38l2.65-6.43.93-.17,2.3,6.48c.31.88.54,1.43.59,1.52a.68.68,0,0,0,.6.35V64c-.37,0-1.22-.05-1.59-.05Zm-2.56-5.37a10.34,10.34,0,0,1-.35-1.14l-1,2.85h2l-.58-1.71Z"/><path class="cls-2" d="M126.49,56.05c-.22.24-.23.6-.23,1.7v4.38c0,.8,0,1.08.16,1.28a.83.83,0,0,0,.65.31V64c-.5,0-1.27-.05-1.72-.05s-1.21,0-1.71.05v-.23a.85.85,0,0,0,.63-.28c.21-.24.23-.59.23-1.69V57.36c0-.8,0-1.08-.17-1.27a.84.84,0,0,0-.65-.32v-.23c.5,0,1.28.05,1.72.05s1.21,0,1.71-.05v.23a.83.83,0,0,0-.62.28Zm.59-2.09-2.75,1-.15-.23L126,53l.09,0,1.1.84-.07.19Z"/><path class="cls-2" d="M130.58,64a7.39,7.39,0,0,1-2-.27v-.21c0-.6,0-1-.05-1.39h.27a1.29,1.29,0,0,0,.45.92,2,2,0,0,0,1.28.35c1.65,0,1.67-1.09,1.67-1.34,0-.83-.53-1.14-1.23-1.57l-.72-.45a2.53,2.53,0,0,1-1.51-2.34c0-.64.3-2.23,2.95-2.23a12.94,12.94,0,0,1,2,.14,5.32,5.32,0,0,0,0,.68c0,.72,0,.92,0,.92h-.26a1.18,1.18,0,0,0-.35-.75,1.89,1.89,0,0,0-1.3-.41c-1.31,0-1.46.75-1.46,1.19,0,.66.38,1,1.07,1.39l.81.48a2.58,2.58,0,0,1,1.66,2.45c0,1.71-1.35,2.44-3.21,2.44Z"/><path class="cls-2" d="M139.51,64.06a3.86,3.86,0,0,1-4.19-4.17,4.1,4.1,0,0,1,4.33-4.41,3.86,3.86,0,0,1,4.2,4.17,4.1,4.1,0,0,1-4.34,4.41Zm.08-8c-1.73,0-2.36,1.65-2.36,3.68s.73,3.78,2.35,3.78,2.36-1.66,2.36-3.69S141.21,56,139.59,56Z"/></g></g></svg>