<?xml version="1.0" standalone="no"?>
<!DOCTYPE svg PUBLIC "-//W3C//DTD SVG 20010904//EN"
 "http://www.w3.org/TR/2001/REC-SVG-20010904/DTD/svg10.dtd">
<svg version="1.0" xmlns="http://www.w3.org/2000/svg"
 width="99.000000pt" height="99.000000pt" viewBox="0 0 99.000000 99.000000"
 preserveAspectRatio="xMidYMid meet">
<metadata>
Created by potrace 1.14, written by Peter Selinger 2001-2017
</metadata>
<g transform="translate(0.000000,99.000000) scale(0.100000,-0.100000)"
fill="#000000" stroke="none">
<path d="M656 974 c-57 -21 -102 -58 -133 -112 -24 -39 -28 -58 -28 -117 1
-146 98 -244 243 -245 166 0 279 153 234 316 -36 126 -192 204 -316 158z"/>
<path d="M0 418 c0 -67 2 -78 18 -79 9 0 56 0 105 0 87 0 102 -6 70 -31 -10
-8 -58 -55 -107 -105 l-88 -91 57 -56 58 -57 105 106 c57 58 107 105 111 105
3 0 6 -47 5 -105 l-1 -105 79 0 78 0 1 28 c0 38 0 313 0 398 l-1 70 -245 0
-245 -1 0 -77z"/>
</g>
</svg>
